STARTFONT 2.3
FONT -FontForge-Monofett-Book-R-Normal--14-140-72-72-P-76-ISO10646-1
SIZE 14 72 72  4
FONTBOUNDINGBOX 9 17 0 -3
COMMENT "Generated by fontforge, http://fontforge.sourceforge.net"
COMMENT "Copyright (c) 2011 by vernon adams. All rights reserved."
STARTPROPERTIES 41
FOUNDRY "FontForge"
FAMILY_NAME "Monofett"
WEIGHT_NAME "Book"
SLANT "R"
SETWIDTH_NAME "Normal"
ADD_STYLE_NAME ""
PIXEL_SIZE 14
POINT_SIZE 140
RESOLUTION_X 72
RESOLUTION_Y 72
SPACING "P"
AVERAGE_WIDTH 76
CHARSET_REGISTRY "ISO10646"
CHARSET_ENCODING "1"
FONTNAME_REGISTRY ""
CHARSET_COLLECTIONS "ISO8859-2 ISO8859-9 ISO8859-4 ISO10646-1"
BITS_PER_PIXEL 4
FONT_NAME "Monofett"
FACE_NAME "Monofett"
COPYRIGHT "Copyright (c) 2011 by vernon adams. All rights reserved."
FONT_VERSION "1.000"
FONT_ASCENT 11
FONT_DESCENT 3
UNDERLINE_POSITION -2
UNDERLINE_THICKNESS 1
X_HEIGHT 9
CAP_HEIGHT 9
RAW_ASCENT 799
RAW_DESCENT 200
NORM_SPACE 2
RELATIVE_WEIGHT 40
RELATIVE_SETWIDTH 50
SUPERSCRIPT_X 0
SUPERSCRIPT_Y 6
SUPERSCRIPT_SIZE 9
SUBSCRIPT_X 0
SUBSCRIPT_Y 1
SUBSCRIPT_SIZE 9
FIGURE_WIDTH 8
AVG_LOWERCASE_WIDTH 80
AVG_UPPERCASE_WIDTH 80
ENDPROPERTIES
CHARS 409
STARTCHAR uni000D
ENCODING 13
SWIDTH 144 0
DWIDTH 2 0
BBX 1 1 0 0
BITMAP
00
ENDCHAR
STARTCHAR space
ENCODING 32
SWIDTH 144 0
DWIDTH 2 0
BBX 1 1 0 0
BITMAP
00
ENDCHAR
STARTCHAR exclam
ENCODING 33
SWIDTH 424 0
DWIDTH 6 0
BBX 6 10 0 0
BITMAP
014410
4EAAE3
DF99FC
FFAAFE
FFBBFF
FFDCFF
FFBAFF
FFFFFE
BFFFFA
1AEE91
ENDCHAR
STARTCHAR quotedbl
ENCODING 34
SWIDTH 424 0
DWIDTH 6 0
BBX 6 10 0 0
BITMAP
014410
4E77E3
DF55FC
FFFFFE
FFFFFF
FFFFFF
FFFFFF
FFFFFE
BFFFFA
1AEE91
ENDCHAR
STARTCHAR numbersign
ENCODING 35
SWIDTH 482 0
DWIDTH 7 0
BBX 7 10 0 0
BITMAP
01454000
4EEFED20
DF774F90
FF454FC0
FF5A9FC0
FD125FC0
FF8ADFC0
FFFFFFB0
BFFFFF70
1AEFD800
ENDCHAR
STARTCHAR dollar
ENCODING 36
SWIDTH 578 0
DWIDTH 8 0
BBX 9 10 0 0
BITMAP
0145541000
4EEB9EE500
DF5643FE00
FF4D9EFF20
FF9424FF20
FFBD95EF20
FF7325FF20
FFFEAFFF10
BFFFFFFC00
1AEFFEA200
ENDCHAR
STARTCHAR percent
ENCODING 37
SWIDTH 578 0
DWIDTH 8 0
BBX 9 10 0 0
BITMAP
0145541000
4CAECFE500
D4884FFE00
F7495FFF20
FFF9968F20
FFF5A63F20
FFF9E78F20
FFFFFFFF10
BFFFFFFC00
1AEFFEA200
ENDCHAR
STARTCHAR ampersand
ENCODING 38
SWIDTH 578 0
DWIDTH 8 0
BBX 9 10 0 0
BITMAP
0145541000
4ED449E500
DF8BFFFE00
FFA7A5AF20
FFB794BF20
FF8BF7CF20
FFC344EF20
FFFFFFFF10
BFFFFFFC00
1AEFFEA200
ENDCHAR
STARTCHAR quotesingle
ENCODING 39
SWIDTH 424 0
DWIDTH 6 0
BBX 6 10 0 0
BITMAP
014410
4EBBE3
DFAAFC
FFFFFE
FFFFFF
FFFFFF
FFFFFF
FFFFFE
BFFFFA
1AEE91
ENDCHAR
STARTCHAR parenleft
ENCODING 40
SWIDTH 483 0
DWIDTH 7 0
BBX 7 10 0 0
BITMAP
01454000
4EA4BD20
DF4FFF90
FF4FFFC0
FF4FFFC0
FF4FFFC0
FF4FFFC0
FFA4BFB0
BFFFFF70
1AEFD800
ENDCHAR
STARTCHAR parenright
ENCODING 41
SWIDTH 483 0
DWIDTH 7 0
BBX 7 10 0 0
BITMAP
01454000
4E94CD20
DFFC8F90
FFFC8FC0
FFFC8FC0
FFFC8FC0
FFFC8FC0
FF94CFB0
BFFFFF70
1AEFD800
ENDCHAR
STARTCHAR asterisk
ENCODING 42
SWIDTH 428 0
DWIDTH 6 0
BBX 6 10 0 0
BITMAP
014410
4E8AB4
DC407D
FE42AF
FFBDDF
FFFFFF
FFFFFF
FFFFFF
BFFFFA
1AEEA1
ENDCHAR
STARTCHAR plus
ENCODING 43
SWIDTH 428 0
DWIDTH 6 0
BBX 6 10 0 0
BITMAP
014410
4EBAE4
DB65AD
FC76CF
FFCBFF
FFFFFF
FFFFFF
FFFFFF
BFFFFA
1AEEA1
ENDCHAR
STARTCHAR comma
ENCODING 44
SWIDTH 428 0
DWIDTH 6 0
BBX 6 10 0 0
BITMAP
014410
4EFFE4
DFFFFD
FFFFFF
FFFFFF
FFFFFF
FF96FF
FFDBFF
BFFFFA
1AEEA1
ENDCHAR
STARTCHAR hyphen
ENCODING 45
SWIDTH 428 0
DWIDTH 6 0
BBX 6 10 0 0
BITMAP
014410
4EFFE4
DFFFFD
FC44CF
FFFFFF
FFFFFF
FFFFFF
FFFFFF
BFFFFA
1AEEA1
ENDCHAR
STARTCHAR period
ENCODING 46
SWIDTH 428 0
DWIDTH 6 0
BBX 6 10 0 0
BITMAP
014410
4EFFE4
DFFFFD
FFFFFF
FFFFFF
FFFFFF
FF99FF
FFFFFF
BFFFFA
1AEEA1
ENDCHAR
STARTCHAR slash
ENCODING 47
SWIDTH 428 0
DWIDTH 6 0
BBX 6 10 0 0
BITMAP
014410
4EF9E4
DFE5FD
FFB8FF
FF9AFF
FF6DFF
FF4FFF
FFEFFF
BFFFFA
1AEEA1
ENDCHAR
STARTCHAR zero
ENCODING 48
SWIDTH 578 0
DWIDTH 8 0
BBX 9 10 0 0
BITMAP
0145541000
4E9444C500
DF4FFB8E00
FF4FFB8F20
FF4FFB8F20
FF4FFB8F20
FF7443CF20
FFFFFFFF10
BFFFFFFC00
1AEFFEA200
ENDCHAR
STARTCHAR one
ENCODING 49
SWIDTH 578 0
DWIDTH 8 0
BBX 9 10 0 0
BITMAP
0145541000
4EF68FE500
DFFB6FFE00
FFFD6FFF20
FFFD6FFF20
FFFD6FFF20
FFFD7FFF20
FFFFFFFF10
BFFFFFFC00
1AEFFEA200
ENDCHAR
STARTCHAR two
ENCODING 50
SWIDTH 578 0
DWIDTH 8 0
BBX 9 10 0 0
BITMAP
0145541000
4E9445D500
DF9FF8BE00
FFFDC6BF20
FF5779FF20
FF4FFFFF20
FF6444EF20
FFFFFFFF10
BFFFFFFC00
1AEFFEA200
ENDCHAR
STARTCHAR three
ENCODING 51
SWIDTH 578 0
DWIDTH 8 0
BBX 9 10 0 0
BITMAP
0145541000
4E7446E500
DF9FF7CE00
FFFCB5CF20
FFFA94DF20
FFBFF7CF20
FF5444EF20
FFFFFFFF10
BFFFFFFC00
1AEFFEA200
ENDCHAR
STARTCHAR four
ENCODING 52
SWIDTH 578 0
DWIDTH 8 0
BBX 9 10 0 0
BITMAP
0145541000
4E9DD9E500
DF7CD6FE00
FF7CD6FF20
FF7AB5EF20
FFD7539F20
FFFFD7FF20
FFFFFFFF10
BFFFFFFC00
1AEFFEA200
ENDCHAR
STARTCHAR five
ENCODING 53
SWIDTH 578 0
DWIDTH 8 0
BBX 9 10 0 0
BITMAP
0145541000
4E8444D500
DF4FFFFE00
FF4778EF20
FFCCC89F20
FFDFFA9F20
FF8444CF20
FFFFFFFF10
BFFFFFFC00
1AEFFEA200
ENDCHAR
STARTCHAR six
ENCODING 54
SWIDTH 578 0
DWIDTH 8 0
BBX 9 10 0 0
BITMAP
0145541000
4EA444E500
DF4EEEFE00
FF4777DF20
FF4CDA7F20
FF4FFD7F20
FF8444AF20
FFFFFFFF10
BFFFFFFC00
1AEFFEA200
ENDCHAR
STARTCHAR seven
ENCODING 55
SWIDTH 578 0
DWIDTH 8 0
BBX 9 10 0 0
BITMAP
0145541000
4EE446E500
DFFFC6FE00
FFFF7BFF20
FFFF3FFF20
FFFB7FFF20
FFF6CFFF20
FFFFFFFF10
BFFFFFFC00
1AEFFEA200
ENDCHAR
STARTCHAR eight
ENCODING 56
SWIDTH 578 0
DWIDTH 8 0
BBX 9 10 0 0
BITMAP
0145541000
4E9445C500
DF4FFA9E00
FF4AA69F20
FF49969F20
FF4FFB8F20
FF7443CF20
FFFFFFFF10
BFFFFFFC00
1AEFFEA200
ENDCHAR
STARTCHAR nine
ENCODING 57
SWIDTH 578 0
DWIDTH 8 0
BBX 9 10 0 0
BITMAP
0145541000
4E8445D500
DF4FF9AE00
FF4FF9AF20
FF8443AF20
FFFFF9AF20
FFA333DF20
FFFFFFFF10
BFFFFFFC00
1AEFFEA200
ENDCHAR
STARTCHAR colon
ENCODING 58
SWIDTH 428 0
DWIDTH 6 0
BBX 6 10 0 0
BITMAP
014410
4EFFE4
DFFFFD
FFFFFF
FF99FF
FFFFFF
FF99FF
FFFFFF
BFFFFA
1AEEA1
ENDCHAR
STARTCHAR semicolon
ENCODING 59
SWIDTH 428 0
DWIDTH 6 0
BBX 6 10 0 0
BITMAP
014410
4EFFE4
DFFFFD
FFFFFF
FFA7FF
FFFFFF
FF96FF
FFDBFF
BFFFFA
1AEEA1
ENDCHAR
STARTCHAR less
ENCODING 60
SWIDTH 482 0
DWIDTH 7 0
BBX 7 11 0 0
BITMAP
038A7200
6FFFFE30
EFFFFFA0
FFF9DFC0
FFABFFC0
FE7FFFC0
FF9CFFC0
FFF8DFB0
CFFFFF80
3DFFFB10
00353000
ENDCHAR
STARTCHAR equal
ENCODING 61
SWIDTH 482 0
DWIDTH 7 0
BBX 7 11 0 0
BITMAP
038A8200
6FFFFE30
DFFFFFA0
FFFFFFC0
FFA89FC0
FFCBCFC0
FFCCCFC0
FFFFFFB0
CFFFFF80
3DFFFB10
00353000
ENDCHAR
STARTCHAR greater
ENCODING 62
SWIDTH 482 0
DWIDTH 7 0
BBX 7 11 0 0
BITMAP
038A8200
6FFFFE30
DFFFFFA0
FFABFFC0
FFF8DFC0
FFFF6FC0
FFF9CFC0
FFBBFFB0
CFEFFF80
3DFFFB10
00353000
ENDCHAR
STARTCHAR question
ENCODING 63
SWIDTH 578 0
DWIDTH 8 0
BBX 9 10 0 0
BITMAP
0145541000
4ED666D500
DFCDFBBE00
FFFFFBBF20
FFFF37EF20
FFFF9FFF20
FFFE8FFF20
FFFFFFFF10
BFFFFFFC00
1AEFFEA200
ENDCHAR
STARTCHAR at
ENCODING 64
SWIDTH 578 0
DWIDTH 8 0
BBX 9 10 0 0
BITMAP
0145541000
4D7666C500
D7C99D5E00
F6FDD68D20
F6D6758D20
F6C6858D20
F7BEE97F20
FF87BFFF10
BFFFFFFC00
1AEFFEA200
ENDCHAR
STARTCHAR A
ENCODING 65
SWIDTH 578 0
DWIDTH 8 0
BBX 9 10 0 0
BITMAP
0145541000
4EC547E500
DF8BF4EE00
FF6DF6DF20
FF4553BF20
FF3FF9AF20
FF4FFB9F20
FFFFFFFF10
BFFFFFFC00
1AEFFEA200
ENDCHAR
STARTCHAR B
ENCODING 66
SWIDTH 578 0
DWIDTH 8 0
BBX 9 10 0 0
BITMAP
0145541000
4E5446E500
DF4FF6CE00
FF3AA5DF20
FF3995DF20
FF4FF7CF20
FF3444EF20
FFFFFFFF10
BFFFFFFC00
1AEFFEA200
ENDCHAR
STARTCHAR C
ENCODING 67
SWIDTH 578 0
DWIDTH 8 0
BBX 9 10 0 0
BITMAP
0145541000
4E8447E500
DF4FFFFE00
FF4FFFFF20
FF4FFFFF20
FF4FFFFF20
FF7447FF20
FFFFFFFF10
BFFFFFFC00
1AEFFEA200
ENDCHAR
STARTCHAR D
ENCODING 68
SWIDTH 578 0
DWIDTH 8 0
BBX 9 10 0 0
BITMAP
0145541000
4E7444B500
DF4FFC7E00
FF4FFC7F20
FF4FFC7F20
FF4FFC7F20
FF5443BF20
FFFFFFFF10
BFFFFFFC00
1AEFFEA200
ENDCHAR
STARTCHAR E
ENCODING 69
SWIDTH 578 0
DWIDTH 8 0
BBX 9 10 0 0
BITMAP
0145541000
4EC444D500
DFB8FFFE00
FFB6BCFF20
FFB58AFF20
FFB8FFFF20
FFC344DF20
FFFFFFFF10
BFFFFFFC00
1AEFFEA200
ENDCHAR
STARTCHAR F
ENCODING 70
SWIDTH 578 0
DWIDTH 8 0
BBX 9 10 0 0
BITMAP
0145541000
4EC444D500
DFB8FFFE00
FFB59BFF20
FFB6ACFF20
FFB8FFFF20
FFB9FFFF20
FFFFFFFF10
BFFFFFFC00
1AEFFEA200
ENDCHAR
STARTCHAR G
ENCODING 71
SWIDTH 578 0
DWIDTH 8 0
BBX 9 10 0 0
BITMAP
0145541000
4EB444D500
DF5EFFFE00
FF5EFFFF20
FF5EA37F20
FF5EFC7F20
FF9443BF20
FFFFFFFF10
BFFFFFFC00
1AEFFEA200
ENDCHAR
STARTCHAR H
ENCODING 72
SWIDTH 578 0
DWIDTH 8 0
BBX 9 10 0 0
BITMAP
0145541000
4E7FFD9500
DF4FFC7E00
FF4AA87F20
FF4AA87F20
FF4FFC7F20
FF5FFC8F20
FFFFFFFF10
BFFFFFFC00
1AEFFEA200
ENDCHAR
STARTCHAR I
ENCODING 73
SWIDTH 578 0
DWIDTH 8 0
BBX 9 10 0 0
BITMAP
0145541000
4E9444A500
DFFF4FFE00
FFFF4FFF20
FFFF4FFF20
FFFF4FFF20
FF9424BF20
FFFFFFFF10
BFFFFFFC00
1AEFFEA200
ENDCHAR
STARTCHAR J
ENCODING 74
SWIDTH 578 0
DWIDTH 8 0
BBX 9 10 0 0
BITMAP
0145541000
4EFFBBE500
DFFFA9FE00
FFFFA9FF20
FFFFA9FF20
FFFFA9FF20
FFF53CFF20
FFFFFFFF10
BFFFFFFC00
1AEFFEA200
ENDCHAR
STARTCHAR K
ENCODING 75
SWIDTH 578 0
DWIDTH 8 0
BBX 9 10 0 0
BITMAP
0145541000
4ED9FC7500
DFC7C3EE00
FFC43EFF20
FFC33EFF20
FFC7C4EF20
FFC8FA8F20
FFFFFFFF10
BFFFFFFC00
1AEFFEA200
ENDCHAR
STARTCHAR L
ENCODING 76
SWIDTH 578 0
DWIDTH 8 0
BBX 9 10 0 0
BITMAP
0145541000
4EF7FFE500
DFF4FFFE00
FFF4FFFF20
FFF4FFFF20
FFF4FFFF20
FFF345FF20
FFFFFFFF10
BFFFFFFC00
1AEFFEA200
ENDCHAR
STARTCHAR M
ENCODING 77
SWIDTH 578 0
DWIDTH 8 0
BBX 9 10 0 0
BITMAP
0145541000
4D54748500
DB8D6F4E00
FB8D6F4F20
FB8D6F4F20
FB8FFF4F20
FC8FFF5F20
FFFFFFFF10
BFFFFFFC00
1AEFFEA200
ENDCHAR
STARTCHAR N
ENCODING 78
SWIDTH 578 0
DWIDTH 8 0
BBX 9 10 0 0
BITMAP
0145541000
4E7445D500
DF4FF9AE00
FF4FFA9F20
FF4FFA9F20
FF4FFA9F20
FF5FFAAF20
FFFFFFFF10
BFFFFFFC00
1AEFFEA200
ENDCHAR
STARTCHAR O
ENCODING 79
SWIDTH 578 0
DWIDTH 8 0
BBX 9 10 0 0
BITMAP
0145541000
4EA444C500
DF4FFB7E00
FF4FFC7F20
FF4FFC7F20
FF4FFC7F20
FF8443BF20
FFFFFFFF10
BFFFFFFC00
1AEFFEA200
ENDCHAR
STARTCHAR P
ENCODING 80
SWIDTH 578 0
DWIDTH 8 0
BBX 9 10 0 0
BITMAP
0145541000
4EA445D500
DF9BF9AE00
FF9BF9AF20
FF9344DF20
FF9BFFFF20
FF9BFFFF20
FFFFFFFF10
BFFFFFFC00
1AEFFEA200
ENDCHAR
STARTCHAR Q
ENCODING 81
SWIDTH 578 0
DWIDTH 8 0
BBX 9 10 0 0
BITMAP
0145541000
4EA444B500
DF4FFC7E00
FF4FFC7F20
FF4FFC7F20
FF4FAC7F20
FF8423BF20
FFFFE6FF10
BFFFFFFC00
1AEFFEA200
ENDCHAR
STARTCHAR R
ENCODING 82
SWIDTH 578 0
DWIDTH 8 0
BBX 9 10 0 0
BITMAP
0145541000
4E8447E500
DF5EF5DE00
FF5CD5EF20
FF5565FF20
FF5EF7CF20
FF6EF8DF20
FFFFFFFF10
BFFFFFFC00
1AEFFEA200
ENDCHAR
STARTCHAR S
ENCODING 83
SWIDTH 578 0
DWIDTH 8 0
BBX 9 10 0 0
BITMAP
0145541000
4EB444D500
DF6DFFFE00
FF68ABFF20
FFE995AF20
FFFFFA9F20
FFB443CF20
FFFFFFFF10
BFFFFFFC00
1AEFFEA200
ENDCHAR
STARTCHAR T
ENCODING 84
SWIDTH 578 0
DWIDTH 8 0
BBX 9 10 0 0
BITMAP
0145541000
4E9444A500
DFFF4FFE00
FFFF4FFF20
FFFF4FFF20
FFFF4FFF20
FFFF5FFF20
FFFFFFFF10
BFFFFFFC00
1AEFFEA200
ENDCHAR
STARTCHAR U
ENCODING 85
SWIDTH 578 0
DWIDTH 8 0
BBX 9 10 0 0
BITMAP
0145541000
4E7FFC9500
DF4FFB8E00
FF4FFB8F20
FF4FFB8F20
FF4FFB8F20
FF7443CF20
FFFFFFFF10
BFFFFFFC00
1AEFFEA200
ENDCHAR
STARTCHAR V
ENCODING 86
SWIDTH 578 0
DWIDTH 8 0
BBX 9 10 0 0
BITMAP
0145541000
4E7FFBA500
DF6CF6CE00
FFA8F3FF20
FFE4D5FF20
FFF499FF20
FFF93DFF20
FFFFFFFF10
BFFFFFFC00
1AEFFEA200
ENDCHAR
STARTCHAR W
ENCODING 87
SWIDTH 578 0
DWIDTH 8 0
BBX 9 10 0 0
BITMAP
0145541000
49CEAF6500
D99B4F3E00
FB882E4F20
FD655C6F20
FE54887F20
FF56C3BF20
FFFFFFFF10
BFFFFFFC00
1AEFFEA200
ENDCHAR
STARTCHAR X
ENCODING 88
SWIDTH 578 0
DWIDTH 8 0
BBX 9 10 0 0
BITMAP
0145541000
4E9EFCA500
DFC6F4EE00
FFF75AFF20
FFF82BFF20
FFD4E4FF20
FF8DFAAF20
FFFFFFFF10
BFFFFFFC00
1AEFFEA200
ENDCHAR
STARTCHAR Y
ENCODING 89
SWIDTH 578 0
DWIDTH 8 0
BBX 9 10 0 0
BITMAP
0145541000
4E9CF9B500
DFC5F3FE00
FFF498FF20
FFFA1EFF20
FFFF4FFF20
FFFF5FFF20
FFFFFFFF10
BFFFFFFC00
1AEFFEA200
ENDCHAR
STARTCHAR Z
ENCODING 90
SWIDTH 578 0
DWIDTH 8 0
BBX 9 10 0 0
BITMAP
0145541000
4EC446E500
DFFFB7FE00
FFFF4EFF20
FFF99FFF20
FFE4FFFF20
FFB344FF20
FFFFFFFF10
BFFFFFFC00
1AEFFEA200
ENDCHAR
STARTCHAR bracketleft
ENCODING 91
SWIDTH 484 0
DWIDTH 7 0
BBX 7 10 0 0
BITMAP
01454000
4ED2FD20
DFD6FFA0
FFD6FFC0
FFD6FFC0
FFD6FFC0
FFD5FFC0
FFE6FFC0
BFFFFF70
1AEFD800
ENDCHAR
STARTCHAR backslash
ENCODING 92
SWIDTH 516 0
DWIDTH 7 0
BBX 8 10 0 0
BITMAP
01455200
4EF7FF70
DFF4FFF1
FFF4FFF4
FFF7CFF4
FFF9AFF4
FFFC8FF4
FFFFFFF3
BFFFFFD0
1AEFEB30
ENDCHAR
STARTCHAR bracketright
ENCODING 93
SWIDTH 484 0
DWIDTH 7 0
BBX 7 10 0 0
BITMAP
01454000
4EC3FD20
DFF4FFA0
FFF4FFC0
FFF4FFC0
FFF4FFC0
FFF4FFC0
FFD7FFC0
BFFFFF70
1AEFD800
ENDCHAR
STARTCHAR asciicircum
ENCODING 94
SWIDTH 355 0
DWIDTH 5 0
BBX 5 6 0 3
BITMAP
015100
1EFD10
6F4F60
CBDBC0
FEFEF0
5A7A50
ENDCHAR
STARTCHAR underscore
ENCODING 95
SWIDTH 428 0
DWIDTH 6 0
BBX 6 10 0 0
BITMAP
014410
4EFFE4
DFFFFD
FFFFFF
FFFFFF
FFFFFF
FEEEEF
F955AF
BFFFFA
1AEEA1
ENDCHAR
STARTCHAR grave
ENCODING 96
SWIDTH 308 0
DWIDTH 4 0
BBX 5 5 0 0
BITMAP
4AA300
ECCB00
BE6F10
3F9F40
08DC10
ENDCHAR
STARTCHAR a
ENCODING 97
SWIDTH 578 0
DWIDTH 8 0
BBX 9 10 0 0
BITMAP
0145541000
4EA447E500
DFFFF5FE00
FFFEE5FF20
FF4552FF20
FF4FF5FF20
FF5443FF20
FFFFFFFF10
BFFFFFFC00
1AEFFEA200
ENDCHAR
STARTCHAR b
ENCODING 98
SWIDTH 578 0
DWIDTH 8 0
BBX 9 10 0 0
BITMAP
0145541000
4E5446E500
DF4FF6CE00
FF3AA5DF20
FF3995DF20
FF4FF7CF20
FF3444EF20
FFFFFFFF10
BFFFFFFC00
1AEFFEA200
ENDCHAR
STARTCHAR c
ENCODING 99
SWIDTH 578 0
DWIDTH 8 0
BBX 9 10 0 0
BITMAP
0145541000
4E8447E500
DF4FFFFE00
FF4FFFFF20
FF4FFFFF20
FF4FFFFF20
FF7447FF20
FFFFFFFF10
BFFFFFFC00
1AEFFEA200
ENDCHAR
STARTCHAR d
ENCODING 100
SWIDTH 578 0
DWIDTH 8 0
BBX 9 10 0 0
BITMAP
0145541000
4E7444B500
DF4FFC7E00
FF4FFC7F20
FF4FFC7F20
FF4FFC7F20
FF5443BF20
FFFFFFFF10
BFFFFFFC00
1AEFFEA200
ENDCHAR
STARTCHAR e
ENCODING 101
SWIDTH 578 0
DWIDTH 8 0
BBX 9 10 0 0
BITMAP
0145541000
4E8447E500
DF4FF4FE00
FF2551FF20
FF4EEEFF20
FF4EEEFF20
FF9558FF20
FFFFFFFF10
BFFFFFFC00
1AEFFEA200
ENDCHAR
STARTCHAR f
ENCODING 102
SWIDTH 578 0
DWIDTH 8 0
BBX 9 10 0 0
BITMAP
0145541000
4EC444D500
DFB8FFFE00
FFB59BFF20
FFB6ACFF20
FFB8FFFF20
FFB9FFFF20
FFFFFFFF10
BFFFFFFC00
1AEFFEA200
ENDCHAR
STARTCHAR g
ENCODING 103
SWIDTH 578 0
DWIDTH 8 0
BBX 9 10 0 0
BITMAP
0145541000
4EB444D500
DF5EFFFE00
FF5EFFFF20
FF5EA37F20
FF5EFC7F20
FF9443BF20
FFFFFFFF10
BFFFFFFC00
1AEFFEA200
ENDCHAR
STARTCHAR h
ENCODING 104
SWIDTH 578 0
DWIDTH 8 0
BBX 9 10 0 0
BITMAP
0145541000
4E7FFD9500
DF4FFC7E00
FF4AA87F20
FF4AA87F20
FF4FFC7F20
FF5FFC8F20
FFFFFFFF10
BFFFFFFC00
1AEFFEA200
ENDCHAR
STARTCHAR i
ENCODING 105
SWIDTH 578 0
DWIDTH 8 0
BBX 9 10 0 0
BITMAP
0145541000
4E9444A500
DFFF4FFE00
FFFF4FFF20
FFFF4FFF20
FFFF4FFF20
FF9424BF20
FFFFFFFF10
BFFFFFFC00
1AEFFEA200
ENDCHAR
STARTCHAR j
ENCODING 106
SWIDTH 578 0
DWIDTH 8 0
BBX 9 10 0 0
BITMAP
0145541000
4EFFBBE500
DFFFA9FE00
FFFFA9FF20
FFFFA9FF20
FFFFA9FF20
FFF53CFF20
FFFFFFFF10
BFFFFFFC00
1AEFFEA200
ENDCHAR
STARTCHAR k
ENCODING 107
SWIDTH 578 0
DWIDTH 8 0
BBX 9 10 0 0
BITMAP
0145541000
4ED9FC7500
DFC7C3EE00
FFC43EFF20
FFC33EFF20
FFC7C4EF20
FFC8FA8F20
FFFFFFFF10
BFFFFFFC00
1AEFFEA200
ENDCHAR
STARTCHAR l
ENCODING 108
SWIDTH 578 0
DWIDTH 8 0
BBX 9 10 0 0
BITMAP
0145541000
4EF7FFE500
DFF4FFFE00
FFF4FFFF20
FFF4FFFF20
FFF4FFFF20
FFF345FF20
FFFFFFFF10
BFFFFFFC00
1AEFFEA200
ENDCHAR
STARTCHAR m
ENCODING 109
SWIDTH 578 0
DWIDTH 8 0
BBX 9 10 0 0
BITMAP
0145541000
4D54748500
DB8D6F4E00
FB8D6F4F20
FB8D6F4F20
FB8FFF4F20
FC8FFF5F20
FFFFFFFF10
BFFFFFFC00
1AEFFEA200
ENDCHAR
STARTCHAR n
ENCODING 110
SWIDTH 578 0
DWIDTH 8 0
BBX 9 10 0 0
BITMAP
0145541000
4E7445D500
DF4FF9AE00
FF4FFA9F20
FF4FFA9F20
FF4FFA9F20
FF5FFAAF20
FFFFFFFF10
BFFFFFFC00
1AEFFEA200
ENDCHAR
STARTCHAR o
ENCODING 111
SWIDTH 578 0
DWIDTH 8 0
BBX 9 10 0 0
BITMAP
0145541000
4EA444C500
DF4FFB7E00
FF4FFC7F20
FF4FFC7F20
FF4FFC7F20
FF8443BF20
FFFFFFFF10
BFFFFFFC00
1AEFFEA200
ENDCHAR
STARTCHAR p
ENCODING 112
SWIDTH 578 0
DWIDTH 8 0
BBX 9 10 0 0
BITMAP
0145541000
4EA445D500
DF9BF9AE00
FF9BF9AF20
FF9344DF20
FF9BFFFF20
FF9BFFFF20
FFFFFFFF10
BFFFFFFC00
1AEFFEA200
ENDCHAR
STARTCHAR q
ENCODING 113
SWIDTH 578 0
DWIDTH 8 0
BBX 9 10 0 0
BITMAP
0145541000
4EA444B500
DF4FFC7E00
FF4FFC7F20
FF4FFC7F20
FF4FAC7F20
FF8423BF20
FFFFE6FF10
BFFFFFFC00
1AEFFEA200
ENDCHAR
STARTCHAR r
ENCODING 114
SWIDTH 578 0
DWIDTH 8 0
BBX 9 10 0 0
BITMAP
0145541000
4E8447E500
DF5EF5DE00
FF5CD5EF20
FF5565FF20
FF5EF7CF20
FF6EF8DF20
FFFFFFFF10
BFFFFFFC00
1AEFFEA200
ENDCHAR
STARTCHAR s
ENCODING 115
SWIDTH 578 0
DWIDTH 8 0
BBX 9 10 0 0
BITMAP
0145541000
4EB444D500
DF6DFFFE00
FF68ABFF20
FFE995AF20
FFFFFA9F20
FFB443CF20
FFFFFFFF10
BFFFFFFC00
1AEFFEA200
ENDCHAR
STARTCHAR t
ENCODING 116
SWIDTH 578 0
DWIDTH 8 0
BBX 9 10 0 0
BITMAP
0145541000
4E9444A500
DFFF4FFE00
FFFF4FFF20
FFFF4FFF20
FFFF4FFF20
FFFF5FFF20
FFFFFFFF10
BFFFFFFC00
1AEFFEA200
ENDCHAR
STARTCHAR u
ENCODING 117
SWIDTH 578 0
DWIDTH 8 0
BBX 9 10 0 0
BITMAP
0145541000
4E7FFC9500
DF4FFB8E00
FF4FFB8F20
FF4FFB8F20
FF4FFB8F20
FF7443CF20
FFFFFFFF10
BFFFFFFC00
1AEFFEA200
ENDCHAR
STARTCHAR v
ENCODING 118
SWIDTH 578 0
DWIDTH 8 0
BBX 9 10 0 0
BITMAP
0145541000
4E7FFBA500
DF6CF6CE00
FFA8F3FF20
FFE4D5FF20
FFF499FF20
FFF93DFF20
FFFFFFFF10
BFFFFFFC00
1AEFFEA200
ENDCHAR
STARTCHAR w
ENCODING 119
SWIDTH 578 0
DWIDTH 8 0
BBX 9 10 0 0
BITMAP
0145541000
49CEAF6500
D99B4F3E00
FB882E4F20
FD655C6F20
FE54887F20
FF56C3BF20
FFFFFFFF10
BFFFFFFC00
1AEFFEA200
ENDCHAR
STARTCHAR x
ENCODING 120
SWIDTH 578 0
DWIDTH 8 0
BBX 9 10 0 0
BITMAP
0145541000
4E9EFCA500
DFC6F4EE00
FFF75AFF20
FFF82BFF20
FFD4E4FF20
FF8DFAAF20
FFFFFFFF10
BFFFFFFC00
1AEFFEA200
ENDCHAR
STARTCHAR y
ENCODING 121
SWIDTH 578 0
DWIDTH 8 0
BBX 9 10 0 0
BITMAP
0145541000
4E9CF9B500
DFC5F3FE00
FFF498FF20
FFFA1EFF20
FFFF4FFF20
FFFF5FFF20
FFFFFFFF10
BFFFFFFC00
1AEFFEA200
ENDCHAR
STARTCHAR z
ENCODING 122
SWIDTH 578 0
DWIDTH 8 0
BBX 9 10 0 0
BITMAP
0145541000
4EC446E500
DFFFB7FE00
FFFF4EFF20
FFF99FFF20
FFE4FFFF20
FFB344FF20
FFFFFFFF10
BFFFFFFC00
1AEFFEA200
ENDCHAR
STARTCHAR braceleft
ENCODING 123
SWIDTH 484 0
DWIDTH 7 0
BBX 7 10 0 0
BITMAP
01454000
4EB49D20
DF7CFFA0
FF6DFFC0
F61EFFC0
FF7CFFC0
FF7AEFC0
FFD6AFC0
BFFFFF70
1AEFD800
ENDCHAR
STARTCHAR bar
ENCODING 124
SWIDTH 484 0
DWIDTH 7 0
BBX 7 10 0 0
BITMAP
01424000
4EF6FD20
DFF6FFA0
FFF6FFC0
FFF6FFC0
FFF6FFC0
FFF6FFC0
FFFBFFC0
BFFFFF70
1AEFD800
ENDCHAR
STARTCHAR braceright
ENCODING 125
SWIDTH 484 0
DWIDTH 7 0
BBX 7 10 0 0
BITMAP
01454000
4E74DD20
DFF9AFA0
FFF99FC0
FFFA28C0
FFF9AFC0
FFE7AFC0
FF87EFC0
BFFFFF70
1AEFD800
ENDCHAR
STARTCHAR asciitilde
ENCODING 126
SWIDTH 578 0
DWIDTH 8 0
BBX 9 10 0 0
BITMAP
0145541000
4EFFFFE500
DFEEFDFE00
FF4643EF20
FFEFFEFF20
FFFFFFFF20
FFFFFFFF20
FFFFFFFF10
BFFFFFFC00
1AEFFEA200
ENDCHAR
STARTCHAR uni00A0
ENCODING 160
SWIDTH 151 0
DWIDTH 2 0
BBX 1 1 0 0
BITMAP
00
ENDCHAR
STARTCHAR exclamdown
ENCODING 161
SWIDTH 424 0
DWIDTH 6 0
BBX 6 10 0 0
BITMAP
014410
4EBBE3
DFECFC
FFCAFE
FFCAFF
FFCAFF
FFCAFF
FFFFFE
BFFFFA
1AEE91
ENDCHAR
STARTCHAR cent
ENCODING 162
SWIDTH 578 0
DWIDTH 8 0
BBX 9 10 0 0
BITMAP
0145541000
4EFE7FE500
DFA328FE00
FF7B7FFF20
FF7C7FFF20
FF7A7EFF20
FFD629FF20
FFFFAFFF10
BFFFFFFC00
1AEFFEA200
ENDCHAR
STARTCHAR sterling
ENCODING 163
SWIDTH 578 0
DWIDTH 8 0
BBX 9 10 0 0
BITMAP
0145541000
4EF649E500
DFE5F5FE00
FFD5EFFF20
FFA38CFF20
FFE5FFFF20
FFE247FF20
FFFFFFFF10
BFFFFFFC00
1AEFFEA200
ENDCHAR
STARTCHAR currency
ENCODING 164
SWIDTH 578 0
DWIDTH 8 0
BBX 9 10 0 0
BITMAP
0145541000
4EACBAC500
DFA693FE00
FFABF5FF20
FFA8C4FF20
FF8987CF20
FFFFFFFF20
FFFFFFFF10
BFFFFFFC00
1AEFFEA200
ENDCHAR
STARTCHAR yen
ENCODING 165
SWIDTH 578 0
DWIDTH 8 0
BBX 9 10 0 0
BITMAP
0145541000
4E6EF6D500
DF89D5FE00
FFE47BFF20
FFE42DFF20
FFC219FF20
FFFB8FFF20
FFFFFFFF10
BFFFFFFC00
1AEFFEA200
ENDCHAR
STARTCHAR brokenbar
ENCODING 166
SWIDTH 484 0
DWIDTH 7 0
BBX 7 10 0 0
BITMAP
01454000
4EF7FD20
DFF4FFA0
FFF8FFC0
FFF8FFC0
FFF4FFC0
FFF5FFC0
FFFFFFC0
BFFFFF70
1AEFD800
ENDCHAR
STARTCHAR section
ENCODING 167
SWIDTH 578 0
DWIDTH 8 0
BBX 9 10 0 0
BITMAP
0145541000
4EC666E500
DF7EFFFE00
FFB46CFF20
FFE6C9FF20
FFFA85FF20
FFEFF6FF20
FFA77AFF10
BFFFFFFC00
1AEFFEA200
ENDCHAR
STARTCHAR dieresis
ENCODING 168
SWIDTH 388 0
DWIDTH 5 0
BBX 6 4 0 0
BITMAP
3CFE80
DCEBF5
E9D7F5
5BBB90
ENDCHAR
STARTCHAR copyright
ENCODING 169
SWIDTH 578 0
DWIDTH 8 0
BBX 9 10 0 0
BITMAP
0145541000
4EC779E500
DBA87A7E00
F8E9FFBB20
F8E9FFE920
F8E7DEBC20
FB9A9A7F20
FFD88AFF10
BFFFFFFC00
1AEFFEA200
ENDCHAR
STARTCHAR ordfeminine
ENCODING 170
SWIDTH 578 0
DWIDTH 8 0
BBX 9 10 0 0
BITMAP
0145541000
4EF547E500
DFFFF4FE00
FFD652FF20
FF8AE4FF20
FFB345FF20
FFFFFFFF20
FFFFFFFF10
BFFFFFFC00
1AEFFEA200
ENDCHAR
STARTCHAR guillemotleft
ENCODING 171
SWIDTH 578 0
DWIDTH 8 0
BBX 9 10 0 0
BITMAP
0145541000
4EFFFFE500
DFF8D8FE00
FFAB7EFF20
FF7ABFFF20
FFAC7FFF20
FFF7D8FF20
FFFEFEFF10
BFFFFFFC00
1AEFFEA200
ENDCHAR
STARTCHAR uni00AD
ENCODING 173
SWIDTH 428 0
DWIDTH 6 0
BBX 6 10 0 0
BITMAP
014410
4EFFE4
DFFFFD
FC44CF
FFFFFF
FFFFFF
FFFFFF
FFFFFF
BFFFFA
1AEEA1
ENDCHAR
STARTCHAR registered
ENCODING 174
SWIDTH 578 0
DWIDTH 8 0
BBX 9 10 0 0
BITMAP
0145541000
4EC779E500
DBA77A7E00
F8F8F7BB20
F8F479E920
F8F8F7BC20
FB9CFA7F20
FFD88AFF10
BFFFFFFC00
1AEFFEA200
ENDCHAR
STARTCHAR macron
ENCODING 175
SWIDTH 428 0
DWIDTH 6 0
BBX 6 4 0 0
BITMAP
3CFFC3
DECCFD
EC66DE
6FFFF6
ENDCHAR
STARTCHAR degree
ENCODING 176
SWIDTH 428 0
DWIDTH 6 0
BBX 6 10 0 0
BITMAP
014410
4D76D4
DC99BD
FE66EF
FFFFFF
FFFFFF
FFFFFF
FFFFFF
BFFFFA
1AEEA1
ENDCHAR
STARTCHAR plusminus
ENCODING 177
SWIDTH 428 0
DWIDTH 6 0
BBX 6 10 0 0
BITMAP
014410
4EBAE4
DB65AD
FC76CF
FFCBFF
FC44CF
FFFFFF
FFFFFF
BFFFFA
1AEEA1
ENDCHAR
STARTCHAR uni00B2
ENCODING 178
SWIDTH 578 0
DWIDTH 8 0
BBX 9 10 0 0
BITMAP
0145541000
4EE54BE500
DFDA96FE00
FFC48EFF20
FFC34BFF20
FFFFFFFF20
FFFFFFFF20
FFFFFFFF10
BFFFFFFC00
1AEFFEA200
ENDCHAR
STARTCHAR uni00B3
ENCODING 179
SWIDTH 578 0
DWIDTH 8 0
BBX 9 10 0 0
BITMAP
0145541000
4EF646E500
DFECB3EE00
FFEDA3EF20
FFE444FF20
FFFFFFFF20
FFFFFFFF20
FFFFFFFF10
BFFFFFFC00
1AEFFEA200
ENDCHAR
STARTCHAR acute
ENCODING 180
SWIDTH 308 0
DWIDTH 4 0
BBX 5 5 0 0
BITMAP
18A600
7F9F40
BB9F20
F9F800
9DC100
ENDCHAR
STARTCHAR uni00B5
ENCODING 181
SWIDTH 578 0
DWIDTH 8 0
BBX 9 10 0 0
BITMAP
0145541000
4E7FFAB500
DF4FF8BE00
FF4FF8BF20
FF4FF8BF20
FF4FF8BF20
FF1444EF20
FF6FFFFF10
BFFFFFFC00
1AEFFEA200
ENDCHAR
STARTCHAR paragraph
ENCODING 182
SWIDTH 578 0
DWIDTH 8 0
BBX 9 10 0 0
BITMAP
0145541000
4EA668E500
DF3049FE00
FF3049FF20
FFEB79FF20
FFFF99FF20
FFFFAAFF20
FFFFFFFF10
BFFFFFFC00
1AEFFEA200
ENDCHAR
STARTCHAR periodcentered
ENCODING 183
SWIDTH 428 0
DWIDTH 6 0
BBX 6 10 0 0
BITMAP
014410
4EFFE4
DFFFFD
FF99FF
FFFFFF
FFFFFF
FFFFFF
FFFFFF
BFFFFA
1AEEA1
ENDCHAR
STARTCHAR cedilla
ENCODING 184
SWIDTH 101 0
DWIDTH 1 0
BBX 2 3 0 -3
BITMAP
95
B3
11
ENDCHAR
STARTCHAR uni00B9
ENCODING 185
SWIDTH 578 0
DWIDTH 8 0
BBX 9 10 0 0
BITMAP
0145541000
4EF68FE500
DFFB6FFE00
FFFD6FFF20
FFFD6FFF20
FFFFFFFF20
FFFFFFFF20
FFFFFFFF10
BFFFFFFC00
1AEFFEA200
ENDCHAR
STARTCHAR ordmasculine
ENCODING 186
SWIDTH 578 0
DWIDTH 8 0
BBX 9 10 0 0
BITMAP
0145541000
4EC445D500
DF8CF9AE00
FF8CF9AF20
FF8CF9AF20
FFB343DF20
FFFFFFFF20
FFFFFFFF10
BFFFFFFC00
1AEFFEA200
ENDCHAR
STARTCHAR guillemotright
ENCODING 187
SWIDTH 578 0
DWIDTH 8 0
BBX 9 10 0 0
BITMAP
0145541000
4EFFFFE500
DF9D7FFE00
FFF7C9FF20
FFFC97FF20
FFF7C9FF20
FF9D7FFF20
FFEFEFFF10
BFFFFFFC00
1AEFFEA200
ENDCHAR
STARTCHAR onequarter
ENCODING 188
SWIDTH 578 0
DWIDTH 8 0
BBX 9 10 0 0
BITMAP
0145541000
467D9FE500
DC59AFFE00
FE56AFBF20
FE646E4F20
FFD66A3D20
FFAAD82A20
FFFFFF9F10
BFFFFFFC00
1AEFFEA200
ENDCHAR
STARTCHAR onehalf
ENCODING 189
SWIDTH 578 0
DWIDTH 8 0
BBX 9 10 0 0
BITMAP
0145541000
467D9FE500
DC59AFFE00
FE56A44D20
FE64CB6A20
FFD686AF20
FFAA944E20
FFFFFFFF10
BFFFFFFC00
1AEFFEA200
ENDCHAR
STARTCHAR threequarters
ENCODING 190
SWIDTH 578 0
DWIDTH 8 0
BBX 9 10 0 0
BITMAP
0145541000
467D9FE500
DC59AFFE00
FE56944B20
FE64CC9720
FFD6DC8720
FFAA944A20
FFFFFFFF10
BFFFFFFC00
1AEFFEA200
ENDCHAR
STARTCHAR questiondown
ENCODING 191
SWIDTH 578 0
DWIDTH 8 0
BBX 9 10 0 0
BITMAP
0145541000
4EFF7FE500
DFFF9FFE00
FFE75FFF20
FF8CFFFF20
FF8DFDEF20
FFC666EF20
FFFFFFFF10
BFFFFFFC00
1AEFFEA200
ENDCHAR
STARTCHAR Agrave
ENCODING 192
SWIDTH 578 0
DWIDTH 8 0
BBX 9 14 0 0
BITMAP
018A500000
0AEAF10000
07F5F60000
00DBD90000
018FF91000
4EC547E500
DF8BF4EE00
FF6DF6DF20
FF4553BF20
FF3FF9AF20
FF4FFB9F20
FFFFFFFF10
BFFFFFFC00
1AEFFEA200
ENDCHAR
STARTCHAR Aacute
ENCODING 193
SWIDTH 578 0
DWIDTH 8 0
BBX 9 14 0 0
BITMAP
0004A92000
000EBDC000
003F5F9000
007F9E1000
017FFB1000
4EC547E500
DF8BF4EE00
FF6DF6DF20
FF4553BF20
FF3FF9AF20
FF4FFB9F20
FFFFFFFF10
BFFFFFFC00
1AEFFEA200
ENDCHAR
STARTCHAR Acircumflex
ENCODING 194
SWIDTH 578 0
DWIDTH 8 0
BBX 9 14 0 0
BITMAP
001CE60000
008D9E1000
01E88E6000
04FADCA000
02FFFF7000
4EC547E500
DF8BF4EE00
FF6DF6DF20
FF4553BF20
FF3FF9AF20
FF4FFB9F20
FFFFFFFF10
BFFFFFFC00
1AEFFEA200
ENDCHAR
STARTCHAR Atilde
ENCODING 195
SWIDTH 578 0
DWIDTH 8 0
BBX 9 14 0 0
BITMAP
0016740000
02EFFF9000
0AFFFFF200
0AC576F300
05FFFFD000
4EC547E500
DF8BF4EE00
FF6DF6DF20
FF4553BF20
FF3FF9AF20
FF4FFB9F20
FFFFFFFF10
BFFFFFFC00
1AEFFEA200
ENDCHAR
STARTCHAR Adieresis
ENCODING 196
SWIDTH 578 0
DWIDTH 8 0
BBX 9 13 0 0
BITMAP
008EFC3000
05ECDDD000
06E9CAD000
02EFFF6000
4EC547E500
DF8BF4EE00
FF6DF6DF20
FF4553BF20
FF3FF9AF20
FF4FFB9F20
FFFFFFFF10
BFFFFFFC00
1AEFFEA200
ENDCHAR
STARTCHAR Aring
ENCODING 197
SWIDTH 578 0
DWIDTH 8 0
BBX 9 14 0 0
BITMAP
0003410000
00AEEE2000
04F56BA000
06F56BB000
03FFFF8000
4EC547E500
DF8BF4EE00
FF6DF6DF20
FF4553BF20
FF3FF9AF20
FF4FFB9F20
FFFFFFFF10
BFFFFFFC00
1AEFFEA200
ENDCHAR
STARTCHAR AE
ENCODING 198
SWIDTH 578 0
DWIDTH 8 0
BBX 9 10 0 0
BITMAP
0145541000
4E94449500
DF4E5FFE00
FF4E4ADF20
FE5E39CF20
FD145FFF20
FC9E34AF20
FFFFFFFF10
BFFFFFFC00
1AEFFEA200
ENDCHAR
STARTCHAR Ccedilla
ENCODING 199
SWIDTH 578 0
DWIDTH 8 0
BBX 9 10 0 0
BITMAP
0145541000
4E8447E500
DF4FFFFE00
FF4FFFFF20
FF4FFFFF20
FF4FFFFF20
FF7437FF20
FFF69FFF10
BFF5BFFC00
1AEFEEA200
ENDCHAR
STARTCHAR Egrave
ENCODING 200
SWIDTH 578 0
DWIDTH 8 0
BBX 9 14 0 0
BITMAP
018A700000
08F9F30000
05F6E80000
00BDBB0000
017FFA1000
4EC444D500
DFB8FFFE00
FFB6BCFF20
FFB58AFF20
FFB8FFFF20
FFC344DF20
FFFFFFFF10
BFFFFFFC00
1AEFFEA200
ENDCHAR
STARTCHAR Eacute
ENCODING 201
SWIDTH 578 0
DWIDTH 8 0
BBX 9 14 0 0
BITMAP
0003A93000
000CCCE000
001F6EB000
005F9F3000
016FFC1000
4EC444D500
DFB8FFFE00
FFB6BCFF20
FFB58AFF20
FFB8FFFF20
FFC344DF20
FFFFFFFF10
BFFFFFFC00
1AEFFEA200
ENDCHAR
STARTCHAR Ecircumflex
ENCODING 202
SWIDTH 578 0
DWIDTH 8 0
BBX 9 14 0 0
BITMAP
001BF80000
006E8F2000
00D98D8000
02FAEBD000
01EFFF9000
4EC444D500
DFB8FFFE00
FFB6BCFF20
FFB58AFF20
FFB8FFFF20
FFC344DF20
FFFFFFFF10
BFFFFFFC00
1AEFFEA200
ENDCHAR
STARTCHAR Edieresis
ENCODING 203
SWIDTH 578 0
DWIDTH 8 0
BBX 9 13 0 0
BITMAP
006DFC4000
03FBECE100
03F7D9F100
01CFFF7000
4EC444D500
DFB8FFFE00
FFB6BCFF20
FFB58AFF20
FFB8FFFF20
FFC344DF20
FFFFFFFF10
BFFFFFFC00
1AEFFEA200
ENDCHAR
STARTCHAR Igrave
ENCODING 204
SWIDTH 578 0
DWIDTH 8 0
BBX 9 14 0 0
BITMAP
007A700000
07F9F40000
04F7D90000
00ADBC0000
016FFB1000
4E9444A500
DFFF4FFE00
FFFF4FFF20
FFFF4FFF20
FFFF4FFF20
FF9424BF20
FFFFFFFF10
BFFFFFFC00
1AEFFEA200
ENDCHAR
STARTCHAR Iacute
ENCODING 205
SWIDTH 578 0
DWIDTH 8 0
BBX 9 14 0 0
BITMAP
00029A4000
000BCBF000
001F7DC000
004F9F4000
015FFD1000
4E9444A500
DFFF4FFE00
FFFF4FFF20
FFFF4FFF20
FFFF4FFF20
FF9424BF20
FFFFFFFF10
BFFFFFFC00
1AEFFEA200
ENDCHAR
STARTCHAR Icircumflex
ENCODING 206
SWIDTH 578 0
DWIDTH 8 0
BBX 9 14 0 0
BITMAP
000BF90000
005F7F3000
00CA8C9000
01FAFAE000
01EFFF9000
4E9444A500
DFFF4FFE00
FFFF4FFF20
FFFF4FFF20
FFFF4FFF20
FF9424BF20
FFFFFFFF10
BFFFFFFC00
1AEFFEA200
ENDCHAR
STARTCHAR Idieresis
ENCODING 207
SWIDTH 578 0
DWIDTH 8 0
BBX 9 13 0 0
BITMAP
006DFD5000
02FBECF100
03F7E9F100
01CFFF8000
4E9444A500
DFFF4FFE00
FFFF4FFF20
FFFF4FFF20
FFFF4FFF20
FF9424BF20
FFFFFFFF10
BFFFFFFC00
1AEFFEA200
ENDCHAR
STARTCHAR Eth
ENCODING 208
SWIDTH 578 0
DWIDTH 8 0
BBX 9 10 0 0
BITMAP
0145541000
4E7444B500
DF4FFC7E00
FE4DFC7F20
FE3DFC7F20
FF4FFC7F20
FF5443BF20
FFFFFFFF10
BFFFFFFC00
1AEFFEA200
ENDCHAR
STARTCHAR Ntilde
ENCODING 209
SWIDTH 578 0
DWIDTH 8 0
BBX 9 14 0 0
BITMAP
0026730000
04EFFF7000
0CFFFFF000
0CA568F100
07FFFFB000
4E7445D500
DF4FF9AE00
FF4FFA9F20
FF4FFA9F20
FF4FFA9F20
FF5FFAAF20
FFFFFFFF10
BFFFFFFC00
1AEFFEA200
ENDCHAR
STARTCHAR Ograve
ENCODING 210
SWIDTH 578 0
DWIDTH 8 0
BBX 9 14 0 0
BITMAP
018A700000
08F9F30000
05F6E70000
00CCCB0000
017FFA1000
4EA444C500
DF4FFB7E00
FF4FFC7F20
FF4FFC7F20
FF4FFC7F20
FF8443BF20
FFFFFFFF10
BFFFFFFC00
1AEFFEA200
ENDCHAR
STARTCHAR Oacute
ENCODING 211
SWIDTH 578 0
DWIDTH 8 0
BBX 9 14 0 0
BITMAP
0003A93000
000CCCD000
002F6EA000
005F9F2000
016FFC1000
4EA444C500
DF4FFB7E00
FF4FFC7F20
FF4FFC7F20
FF4FFC7F20
FF8443BF20
FFFFFFFF10
BFFFFFFC00
1AEFFEA200
ENDCHAR
STARTCHAR Ocircumflex
ENCODING 212
SWIDTH 578 0
DWIDTH 8 0
BBX 9 14 0 0
BITMAP
001BF80000
007E8F2000
00D98E8000
02FAEBC000
02EFFF8000
4EA444C500
DF4FFB7E00
FF4FFC7F20
FF4FFC7F20
FF4FFC7F20
FF8443BF20
FFFFFFFF10
BFFFFFFC00
1AEFFEA200
ENDCHAR
STARTCHAR Otilde
ENCODING 213
SWIDTH 578 0
DWIDTH 8 0
BBX 9 14 0 0
BITMAP
0015740000
02DFFFA000
08FFFFF400
09D575F400
04FFFFE100
4EA444C500
DF4FFB7E00
FF4FFC7F20
FF4FFC7F20
FF4FFC7F20
FF8443BF20
FFFFFFFF10
BFFFFFFC00
1AEFFEA200
ENDCHAR
STARTCHAR Odieresis
ENCODING 214
SWIDTH 578 0
DWIDTH 8 0
BBX 9 13 0 0
BITMAP
007DFC4000
04FBECE000
04F8D9E000
01DFFF7000
4EA444C500
DF4FFB7E00
FF4FFC7F20
FF4FFC7F20
FF4FFC7F20
FF8443BF20
FFFFFFFF10
BFFFFFFC00
1AEFFEA200
ENDCHAR
STARTCHAR multiply
ENCODING 215
SWIDTH 578 0
DWIDTH 8 0
BBX 9 10 0 0
BITMAP
0145541000
4EFFFFE500
DFFDFDFE00
FFF75BFF20
FFF75BFF20
FFFDFDFF20
FFFFFFFF20
FFFFFFFF10
BFFFFFFC00
1AEFFEA200
ENDCHAR
STARTCHAR Oslash
ENCODING 216
SWIDTH 578 0
DWIDTH 8 0
BBX 9 10 0 0
BITMAP
0145541000
4E9445C500
DF4FD29E00
FF4F598F20
FF49AB8F20
FF35FA9F20
FF7344CF20
FFFFFFFF10
BFFFFFFC00
1AEFFEA200
ENDCHAR
STARTCHAR Ugrave
ENCODING 217
SWIDTH 578 0
DWIDTH 8 0
BBX 9 14 0 0
BITMAP
018A700000
08F9F30000
05F6E80000
00BDBB0000
017FFA1000
4E7FFC9500
DF4FFB8E00
FF4FFB8F20
FF4FFB8F20
FF4FFB8F20
FF7443CF20
FFFFFFFF10
BFFFFFFC00
1AEFFEA200
ENDCHAR
STARTCHAR Uacute
ENCODING 218
SWIDTH 578 0
DWIDTH 8 0
BBX 9 14 0 0
BITMAP
0003A93000
000CCCE000
001F6EB000
005F9F3000
016FFC1000
4E7FFC9500
DF4FFB8E00
FF4FFB8F20
FF4FFB8F20
FF4FFB8F20
FF7443CF20
FFFFFFFF10
BFFFFFFC00
1AEFFEA200
ENDCHAR
STARTCHAR Ucircumflex
ENCODING 219
SWIDTH 578 0
DWIDTH 8 0
BBX 9 14 0 0
BITMAP
001BF80000
006E8F2000
00D98D8000
02FAEBD000
01EFFF9000
4E7FFC9500
DF4FFB8E00
FF4FFB8F20
FF4FFB8F20
FF4FFB8F20
FF7443CF20
FFFFFFFF10
BFFFFFFC00
1AEFFEA200
ENDCHAR
STARTCHAR Udieresis
ENCODING 220
SWIDTH 578 0
DWIDTH 8 0
BBX 9 13 0 0
BITMAP
006DFC4000
03FBECE100
03F7D9F100
01CFFF7000
4E7FFC9500
DF4FFB8E00
FF4FFB8F20
FF4FFB8F20
FF4FFB8F20
FF7443CF20
FFFFFFFF10
BFFFFFFC00
1AEFFEA200
ENDCHAR
STARTCHAR Yacute
ENCODING 221
SWIDTH 578 0
DWIDTH 8 0
BBX 9 14 0 0
BITMAP
0003A93000
000CCCE000
002F6EB000
005F9F2000
016FFC1000
4E9CF9B500
DFC5F3FE00
FFF498FF20
FFFA1EFF20
FFFF4FFF20
FFFF5FFF20
FFFFFFFF10
BFFFFFFC00
1AEFFEA200
ENDCHAR
STARTCHAR Thorn
ENCODING 222
SWIDTH 578 0
DWIDTH 8 0
BBX 9 10 0 0
BITMAP
0145541000
4E9BFFE500
DF9345EE00
FF9BF9AF20
FF9695BF20
FF97ABFF20
FF9BFFFF20
FFFFFFFF10
BFFFFFFC00
1AEFFEA200
ENDCHAR
STARTCHAR germandbls
ENCODING 223
SWIDTH 578 0
DWIDTH 8 0
BBX 9 10 0 0
BITMAP
0145541000
4E9446E500
DF4FF6DE00
FF4FC4FF20
FF4FE8AF20
FF4FFB8F20
FF5C43BF20
FFFFFFFF10
BFFFFFFC00
1AEFFEA200
ENDCHAR
STARTCHAR agrave
ENCODING 224
SWIDTH 578 0
DWIDTH 8 0
BBX 9 14 0 0
BITMAP
018A700000
08F9F30000
05F6E70000
00BCCB0000
017FFA1000
4EA447E500
DFFFF5FE00
FFFEE5FF20
FF4552FF20
FF4FF5FF20
FF5443FF20
FFFFFFFF10
BFFFFFFC00
1AEFFEA200
ENDCHAR
STARTCHAR aacute
ENCODING 225
SWIDTH 578 0
DWIDTH 8 0
BBX 9 14 0 0
BITMAP
0003A93000
000CCCE000
002F6EB000
005F9F3000
016FFC1000
4EA447E500
DFFFF5FE00
FFFEE5FF20
FF4552FF20
FF4FF5FF20
FF5443FF20
FFFFFFFF10
BFFFFFFC00
1AEFFEA200
ENDCHAR
STARTCHAR acircumflex
ENCODING 226
SWIDTH 578 0
DWIDTH 8 0
BBX 9 14 0 0
BITMAP
001BF80000
007E8F2000
00D98D8000
02FAEBC000
01EFFF8000
4EA447E500
DFFFF5FE00
FFFEE5FF20
FF4552FF20
FF4FF5FF20
FF5443FF20
FFFFFFFF10
BFFFFFFC00
1AEFFEA200
ENDCHAR
STARTCHAR atilde
ENCODING 227
SWIDTH 578 0
DWIDTH 8 0
BBX 9 14 0 0
BITMAP
0015740000
01DFFFB000
08FFFFF400
08D575F500
04FFFFE100
4EA447E500
DFFFF5FE00
FFFEE5FF20
FF4552FF20
FF4FF5FF20
FF5443FF20
FFFFFFFF10
BFFFFFFC00
1AEFFEA200
ENDCHAR
STARTCHAR adieresis
ENCODING 228
SWIDTH 578 0
DWIDTH 8 0
BBX 9 13 0 0
BITMAP
006DFC4000
03FBECE000
04F7D9F100
01DFFF7000
4EA447E500
DFFFF5FE00
FFFEE5FF20
FF4552FF20
FF4FF5FF20
FF5443FF20
FFFFFFFF10
BFFFFFFC00
1AEFFEA200
ENDCHAR
STARTCHAR aring
ENCODING 229
SWIDTH 578 0
DWIDTH 8 0
BBX 9 14 0 0
BITMAP
0003510000
009FEE4000
02F67AC000
04F67AD000
02FFFFA000
4EA447E500
DFFFF5FE00
FFFEE5FF20
FF4552FF20
FF4FF5FF20
FF5443FF20
FFFFFFFF10
BFFFFFFC00
1AEFFEA200
ENDCHAR
STARTCHAR ae
ENCODING 230
SWIDTH 578 0
DWIDTH 8 0
BBX 9 10 0 0
BITMAP
0145541000
4E94449500
DF4E5FFE00
FF4E4ADF20
FE5E39CF20
FD145FFF20
FC9E34AF20
FFFFFFFF10
BFFFFFFC00
1AEFFEA200
ENDCHAR
STARTCHAR ccedilla
ENCODING 231
SWIDTH 578 0
DWIDTH 8 0
BBX 9 10 0 0
BITMAP
0145541000
4E9547E500
DF4FFFFE00
FF4FFFFF20
FF4FFFFF20
FF4FFFFF20
FF7437FF20
FFF6AFFF10
BFF4BFFC00
1AEFEEA200
ENDCHAR
STARTCHAR egrave
ENCODING 232
SWIDTH 578 0
DWIDTH 8 0
BBX 9 14 0 0
BITMAP
018A600000
08F9F20000
06F5F70000
00CCCA0000
017FF91000
4E8447E500
DF4FF4FE00
FF2551FF20
FF4EEEFF20
FF4EEEFF20
FF9558FF20
FFFFFFFF10
BFFFFFFC00
1AEFFEA200
ENDCHAR
STARTCHAR eacute
ENCODING 233
SWIDTH 578 0
DWIDTH 8 0
BBX 9 14 0 0
BITMAP
0005A92000
000EAEB000
004F5F8000
008EAE1000
017FFA1000
4E8447E500
DF4FF4FE00
FF2551FF20
FF4EEEFF20
FF4EEEFF20
FF9558FF20
FFFFFFFF10
BFFFFFFC00
1AEFFEA200
ENDCHAR
STARTCHAR ecircumflex
ENCODING 234
SWIDTH 578 0
DWIDTH 8 0
BBX 9 14 0 0
BITMAP
003DE40000
00BBBD0000
02F88F4000
06FABE8000
04FFFF5000
4E8447E500
DF4FF4FE00
FF2551FF20
FF4EEEFF20
FF4EEEFF20
FF9558FF20
FFFFFFFF10
BFFFFFFC00
1AEFFEA200
ENDCHAR
STARTCHAR edieresis
ENCODING 235
SWIDTH 578 0
DWIDTH 8 0
BBX 9 13 0 0
BITMAP
01AEEA1000
09DDCE9000
09CBACA000
03FFFF3000
4E8447E500
DF4FF4FE00
FF2551FF20
FF4EEEFF20
FF4EEEFF20
FF9558FF20
FFFFFFFF10
BFFFFFFC00
1AEFFEA200
ENDCHAR
STARTCHAR igrave
ENCODING 236
SWIDTH 578 0
DWIDTH 8 0
BBX 9 14 0 0
BITMAP
018A700000
07F9F30000
04F6E80000
00BDBB0000
017FFA1000
4E9444A500
DFFF4FFE00
FFFF4FFF20
FFFF4FFF20
FFFF4FFF20
FF9424BF20
FFFFFFFF10
BFFFFFFC00
1AEFFEA200
ENDCHAR
STARTCHAR iacute
ENCODING 237
SWIDTH 578 0
DWIDTH 8 0
BBX 9 14 0 0
BITMAP
0003A94000
000BCCE000
001F6EB000
004F9F3000
015FFD1000
4E9444A500
DFFF4FFE00
FFFF4FFF20
FFFF4FFF20
FFFF4FFF20
FF9424BF20
FFFFFFFF10
BFFFFFFC00
1AEFFEA200
ENDCHAR
STARTCHAR icircumflex
ENCODING 238
SWIDTH 578 0
DWIDTH 8 0
BBX 9 14 0 0
BITMAP
001BF90000
006E8F3000
00CA8D9000
01FAEAD000
01EFFF9000
4E9444A500
DFFF4FFE00
FFFF4FFF20
FFFF4FFF20
FFFF4FFF20
FF9424BF20
FFFFFFFF10
BFFFFFFC00
1AEFFEA200
ENDCHAR
STARTCHAR idieresis
ENCODING 239
SWIDTH 578 0
DWIDTH 8 0
BBX 9 13 0 0
BITMAP
006DFC4000
03FBECF100
03F7D9F100
01CFFF7000
4E9444A500
DFFF4FFE00
FFFF4FFF20
FFFF4FFF20
FFFF4FFF20
FF9424BF20
FFFFFFFF10
BFFFFFFC00
1AEFFEA200
ENDCHAR
STARTCHAR eth
ENCODING 240
SWIDTH 578 0
DWIDTH 8 0
BBX 9 10 0 0
BITMAP
0145541000
4E7444B500
DF4FFC7E00
FE4DFC7F20
FE3DFC7F20
FF4FFC7F20
FF5443BF20
FFFFFFFF10
BFFFFFFC00
1AEFFEA200
ENDCHAR
STARTCHAR ntilde
ENCODING 241
SWIDTH 578 0
DWIDTH 8 0
BBX 9 14 0 0
BITMAP
0026630000
04FFFF7000
0CFFFFF000
0CA668F100
07FFFFA000
4E7445D500
DF4FF9AE00
FF4FFA9F20
FF4FFA9F20
FF4FFA9F20
FF5FFAAF20
FFFFFFFF10
BFFFFFFC00
1AEFFEA200
ENDCHAR
STARTCHAR oacute
ENCODING 243
SWIDTH 578 0
DWIDTH 8 0
BBX 9 14 0 0
BITMAP
0004A92000
000EBDC000
004F5F9000
007EAE1000
017FFA1000
4EA444C500
DF4FFB7E00
FF4FFC7F20
FF4FFC7F20
FF4FFC7F20
FF8443BF20
FFFFFFFF10
BFFFFFFC00
1AEFFEA200
ENDCHAR
STARTCHAR ocircumflex
ENCODING 244
SWIDTH 578 0
DWIDTH 8 0
BBX 9 14 0 0
BITMAP
001BF80000
007E8F2000
00D98D8000
02FAEBC000
01EFFF8000
4EA444C500
DF4FFB7E00
FF4FFC7F20
FF4FFC7F20
FF4FFC7F20
FF8443BF20
FFFFFFFF10
BFFFFFFC00
1AEFFEA200
ENDCHAR
STARTCHAR otilde
ENCODING 245
SWIDTH 578 0
DWIDTH 8 0
BBX 9 14 0 0
BITMAP
0016740000
02EFFFA000
09FFFFF300
09C576F400
04FFFFD000
4EA444C500
DF4FFB7E00
FF4FFC7F20
FF4FFC7F20
FF4FFC7F20
FF8443BF20
FFFFFFFF10
BFFFFFFC00
1AEFFEA200
ENDCHAR
STARTCHAR odieresis
ENCODING 246
SWIDTH 578 0
DWIDTH 8 0
BBX 9 13 0 0
BITMAP
006DFC4000
03FBECE100
03F7D9F100
01CFFF7000
4EA444C500
DF4FFB7E00
FF4FFC7F20
FF4FFC7F20
FF4FFC7F20
FF8443BF20
FFFFFFFF10
BFFFFFFC00
1AEFFEA200
ENDCHAR
STARTCHAR divide
ENCODING 247
SWIDTH 428 0
DWIDTH 6 0
BBX 6 10 0 0
BITMAP
014410
4EEEE4
DFAAFD
FC44CF
FF99FF
FFFFFF
FFFFFF
FFFFFF
BFFFFA
1AEEA1
ENDCHAR
STARTCHAR oslash
ENCODING 248
SWIDTH 578 0
DWIDTH 8 0
BBX 9 10 0 0
BITMAP
0145541000
4E9445C500
DF4FD29E00
FF4F598F20
FF49AB8F20
FF35FA9F20
FF7344CF20
FFFFFFFF10
BFFFFFFC00
1AEFFEA200
ENDCHAR
STARTCHAR ugrave
ENCODING 249
SWIDTH 578 0
DWIDTH 8 0
BBX 9 14 0 0
BITMAP
018A700000
07F9F30000
04F6E80000
00BDBB0000
017FFA1000
4E7FFC9500
DF4FFB8E00
FF4FFB8F20
FF4FFB8F20
FF4FFB8F20
FF7443CF20
FFFFFFFF10
BFFFFFFC00
1AEFFEA200
ENDCHAR
STARTCHAR uacute
ENCODING 250
SWIDTH 578 0
DWIDTH 8 0
BBX 9 14 0 0
BITMAP
0003A94000
000BCCE000
001F6EB000
004F9F3000
015FFD1000
4E7FFC9500
DF4FFB8E00
FF4FFB8F20
FF4FFB8F20
FF4FFB8F20
FF7443CF20
FFFFFFFF10
BFFFFFFC00
1AEFFEA200
ENDCHAR
STARTCHAR ucircumflex
ENCODING 251
SWIDTH 578 0
DWIDTH 8 0
BBX 9 14 0 0
BITMAP
001BF90000
006E8F3000
00CA8D9000
01FAEAD000
01EFFF9000
4E7FFC9500
DF4FFB8E00
FF4FFB8F20
FF4FFB8F20
FF4FFB8F20
FF7443CF20
FFFFFFFF10
BFFFFFFC00
1AEFFEA200
ENDCHAR
STARTCHAR udieresis
ENCODING 252
SWIDTH 578 0
DWIDTH 8 0
BBX 9 13 0 0
BITMAP
006DFC4000
03FBECF100
03F7D9F100
01CFFF7000
4E7FFC9500
DF4FFB8E00
FF4FFB8F20
FF4FFB8F20
FF4FFB8F20
FF7443CF20
FFFFFFFF10
BFFFFFFC00
1AEFFEA200
ENDCHAR
STARTCHAR yacute
ENCODING 253
SWIDTH 578 0
DWIDTH 8 0
BBX 9 14 0 0
BITMAP
0003A93000
000CCCE000
002F6EB000
005F9F2000
016FFC1000
4E9CF9B500
DFC5F3FE00
FFF498FF20
FFFA1EFF20
FFFF4FFF20
FFFF5FFF20
FFFFFFFF10
BFFFFFFC00
1AEFFEA200
ENDCHAR
STARTCHAR thorn
ENCODING 254
SWIDTH 578 0
DWIDTH 8 0
BBX 9 10 0 0
BITMAP
0145541000
4E9BFFE500
DF9345EE00
FF9BF9AF20
FF9695BF20
FF97ABFF20
FF9BFFFF20
FFFFFFFF10
BFFFFFFC00
1AEFFEA200
ENDCHAR
STARTCHAR ydieresis
ENCODING 255
SWIDTH 578 0
DWIDTH 8 0
BBX 9 13 0 0
BITMAP
007DFC4000
04FBECE000
04F7D9F000
01DFFF7000
4E9CF9B500
DFC5F3FE00
FFF498FF20
FFFA1EFF20
FFFF4FFF20
FFFF5FFF20
FFFFFFFF10
BFFFFFFC00
1AEFFEA200
ENDCHAR
STARTCHAR Amacron
ENCODING 256
SWIDTH 578 0
DWIDTH 8 0
BBX 9 14 0 0
BITMAP
0000100000
01AFFD5000
09FCCEF200
0AE66BF300
04FFFFB000
4EC547E500
DF8BF4EE00
FF6DF6DF20
FF4553BF20
FF3FF9AF20
FF4FFB9F20
FFFFFFFF10
BFFFFFFC00
1AEFFEA200
ENDCHAR
STARTCHAR amacron
ENCODING 257
SWIDTH 578 0
DWIDTH 8 0
BBX 9 14 0 0
BITMAP
0000100000
009EFE6000
07FCCEF300
09F66AF500
03FFFFD000
4EA447E500
DFFFF5FE00
FFFEE5FF20
FF4552FF20
FF4FF5FF20
FF5443FF20
FFFFFFFF10
BFFFFFFC00
1AEFFEA200
ENDCHAR
STARTCHAR Abreve
ENCODING 258
SWIDTH 578 0
DWIDTH 8 0
BBX 9 14 0 0
BITMAP
0000100000
01AFFD5000
09FFFFF200
0AF469F300
04FFFFB000
4EC547E500
DF8BF4EE00
FF6DF6DF20
FF4553BF20
FF3FF9AF20
FF4FFB9F20
FFFFFFFF10
BFFFFFFC00
1AEFFEA200
ENDCHAR
STARTCHAR abreve
ENCODING 259
SWIDTH 578 0
DWIDTH 8 0
BBX 9 14 0 0
BITMAP
0000100000
009EFE6000
07FFFFF300
09F577F500
03FFFFD000
4EA447E500
DFFFF5FE00
FFFEE5FF20
FF4552FF20
FF4FF5FF20
FF5443FF20
FFFFFFFF10
BFFFFFFC00
1AEFFEA200
ENDCHAR
STARTCHAR Aogonek
ENCODING 260
SWIDTH 578 0
DWIDTH 8 0
BBX 9 10 0 0
BITMAP
0145541000
4EC547E500
DF8BF4EE00
FF6DF6DF20
FF4553BF20
FF3FF9AF20
FF4FFB8F20
FFFFF6EF10
BFFFF4BC00
1AEFFEA200
ENDCHAR
STARTCHAR aogonek
ENCODING 261
SWIDTH 578 0
DWIDTH 8 0
BBX 9 10 0 0
BITMAP
0145541000
4EA447E500
DFFFF4FE00
FFFEE4FF20
FF4551FF20
FF4FF4FF20
FF5433FF20
FFF9BFFF10
BFF78FFC00
1AEFEEA200
ENDCHAR
STARTCHAR Cacute
ENCODING 262
SWIDTH 578 0
DWIDTH 8 0
BBX 9 14 0 0
BITMAP
00029A4000
000BCBF000
001F7DC000
004F9F4000
015FFD1000
4E8447E500
DF4FFFFE00
FF4FFFFF20
FF4FFFFF20
FF4FFFFF20
FF7447FF20
FFFFFFFF10
BFFFFFFC00
1AEFFEA200
ENDCHAR
STARTCHAR cacute
ENCODING 263
SWIDTH 578 0
DWIDTH 8 0
BBX 9 14 0 0
BITMAP
0003A93000
000CCCE000
001F6EB000
005F9F3000
016FFC1000
4E8447E500
DF4FFFFE00
FF4FFFFF20
FF4FFFFF20
FF4FFFFF20
FF7447FF20
FFFFFFFF10
BFFFFFFC00
1AEFFEA200
ENDCHAR
STARTCHAR Ccircumflex
ENCODING 264
SWIDTH 578 0
DWIDTH 8 0
BBX 9 14 0 0
BITMAP
001CE70000
008D9E1000
00E88E7000
03FADCB000
02FFFF7000
4E8447E500
DF4FFFFE00
FF4FFFFF20
FF4FFFFF20
FF4FFFFF20
FF7447FF20
FFFFFFFF10
BFFFFFFC00
1AEFFEA200
ENDCHAR
STARTCHAR ccircumflex
ENCODING 265
SWIDTH 578 0
DWIDTH 8 0
BBX 9 14 0 0
BITMAP
001CE60000
008D9E1000
01E88E6000
04FADCA000
02FFFF7000
4E8447E500
DF4FFFFE00
FF4FFFFF20
FF4FFFFF20
FF4FFFFF20
FF7447FF20
FFFFFFFF10
BFFFFFFC00
1AEFFEA200
ENDCHAR
STARTCHAR Cdotaccent
ENCODING 266
SWIDTH 578 0
DWIDTH 8 0
BBX 9 14 0 0
BITMAP
0001000000
03CFFB2000
0EFDEFC000
1FF9BFD000
0BFFFF9000
4E8447E500
DF4FFFFE00
FF4FFFFF20
FF4FFFFF20
FF4FFFFF20
FF7447FF20
FFFFFFFF10
BFFFFFFC00
1AEFFEA200
ENDCHAR
STARTCHAR cdotaccent
ENCODING 267
SWIDTH 578 0
DWIDTH 8 0
BBX 9 13 0 0
BITMAP
02BFFC3000
0CFEEFE000
0EFBAFF000
09FFFFA000
4E8447E500
DF4FFFFE00
FF4FFFFF20
FF4FFFFF20
FF4FFFFF20
FF7447FF20
FFFFFFFF10
BFFFFFFC00
1AEFFEA200
ENDCHAR
STARTCHAR Ccaron
ENCODING 268
SWIDTH 578 0
DWIDTH 8 0
BBX 9 14 0 0
BITMAP
0177771000
08EDCE6000
07F88F6000
03F99F2000
01EFFD1000
4E8447E500
DF4FFFFE00
FF4FFFFF20
FF4FFFFF20
FF4FFFFF20
FF7447FF20
FFFFFFFF10
BFFFFFFC00
1AEFFEA200
ENDCHAR
STARTCHAR ccaron
ENCODING 269
SWIDTH 578 0
DWIDTH 8 0
BBX 9 14 0 0
BITMAP
0077681000
06FCDE8000
05F88F8000
01FA9F4000
01CFFF1000
4E8447E500
DF4FFFFE00
FF4FFFFF20
FF4FFFFF20
FF4FFFFF20
FF7447FF20
FFFFFFFF10
BFFFFFFC00
1AEFFEA200
ENDCHAR
STARTCHAR Dcaron
ENCODING 270
SWIDTH 578 0
DWIDTH 8 0
BBX 9 14 0 0
BITMAP
0177681000
06FCDE8000
05F88F7000
01F99F3000
01DFFE1000
4E7444B500
DF4FFC7E00
FF4FFC7F20
FF4FFC7F20
FF4FFC7F20
FF5443BF20
FFFFFFFF10
BFFFFFFC00
1AEFFEA200
ENDCHAR
STARTCHAR dcaron
ENCODING 271
SWIDTH 578 0
DWIDTH 8 0
BBX 9 10 0 0
BITMAP
0145541000
4B44495500
DA9FE57E00
FA9FE5FF20
FA9FE5FF20
FA9FE5FF20
FB3449FF20
FFFFFFFF10
BFFFFFFC00
1AEFFEA200
ENDCHAR
STARTCHAR Dcroat
ENCODING 272
SWIDTH 578 0
DWIDTH 8 0
BBX 9 10 0 0
BITMAP
0145541000
4E7444B500
DF4FFC7E00
FA28FC7F20
FD3CFC7F20
FF4FFC7F20
FF5443BF20
FFFFFFFF10
BFFFFFFC00
1AEFFEA200
ENDCHAR
STARTCHAR dcroat
ENCODING 273
SWIDTH 578 0
DWIDTH 8 0
BBX 9 10 0 0
BITMAP
0145541000
4E7444B500
DF4FFC7E00
FA28FC7F20
FD3CFC7F20
FF4FFC7F20
FF5443BF20
FFFFFFFF10
BFFFFFFC00
1AEFFEA200
ENDCHAR
STARTCHAR Emacron
ENCODING 274
SWIDTH 578 0
DWIDTH 8 0
BBX 9 14 0 0
BITMAP
0000100000
009EFE7000
07FCCDF400
08F66AF500
03FFFFD100
4EC444D500
DFB8FFFE00
FFB6BCFF20
FFB58AFF20
FFB8FFFF20
FFC344DF20
FFFFFFFF10
BFFFFFFC00
1AEFFEA200
ENDCHAR
STARTCHAR emacron
ENCODING 275
SWIDTH 578 0
DWIDTH 8 0
BBX 9 13 0 0
BITMAP
02BFFC3000
0CECCED000
0EC66DF000
07FFFF8000
4E8447E500
DF4FF4FE00
FF2551FF20
FF4EEEFF20
FF4EEEFF20
FF9558FF20
FFFFFFFF10
BFFFFFFC00
1AEFFEA200
ENDCHAR
STARTCHAR Ebreve
ENCODING 276
SWIDTH 578 0
DWIDTH 8 0
BBX 9 14 0 0
BITMAP
0000100000
009EFE7000
07FFFFF400
08F577F500
03FFFFD100
4EC444D500
DFB8FFFE00
FFB6BCFF20
FFB58AFF20
FFB8FFFF20
FFC344DF20
FFFFFFFF10
BFFFFFFC00
1AEFFEA200
ENDCHAR
STARTCHAR ebreve
ENCODING 277
SWIDTH 578 0
DWIDTH 8 0
BBX 9 13 0 0
BITMAP
02BFFC3000
0CFFFFD000
0ED45CF000
07FFFF8000
4E8447E500
DF4FF4FE00
FF2551FF20
FF4EEEFF20
FF4EEEFF20
FF9558FF20
FFFFFFFF10
BFFFFFFC00
1AEFFEA200
ENDCHAR
STARTCHAR Edotaccent
ENCODING 278
SWIDTH 578 0
DWIDTH 8 0
BBX 9 14 0 0
BITMAP
0000100000
009EFE7000
07FFDFF400
09FE6FF500
04FFFFE100
4EC444D500
DFB8FFFE00
FFB6BCFF20
FFB58AFF20
FFB8FFFF20
FFC344DF20
FFFFFFFF10
BFFFFFFC00
1AEFFEA200
ENDCHAR
STARTCHAR edotaccent
ENCODING 279
SWIDTH 578 0
DWIDTH 8 0
BBX 9 13 0 0
BITMAP
02BFFC3000
0CFEEFD000
0EFAAFF000
09FFFFA000
4E8447E500
DF4FF4FE00
FF2551FF20
FF4EEEFF20
FF4EEEFF20
FF9558FF20
FFFFFFFF10
BFFFFFFC00
1AEFFEA200
ENDCHAR
STARTCHAR Eogonek
ENCODING 280
SWIDTH 578 0
DWIDTH 8 0
BBX 9 10 0 0
BITMAP
0145541000
4EC444D500
DFB8FFFE00
FFB6BCFF20
FFB58AFF20
FFB8FFFF20
FFC343DF20
FFFFD7FF10
BFFFC4EC00
1AEFFDA200
ENDCHAR
STARTCHAR eogonek
ENCODING 281
SWIDTH 578 0
DWIDTH 8 0
BBX 9 10 0 0
BITMAP
0145541000
4E8447E500
DF4FF4FE00
FF2551FF20
FF4EEEFF20
FF4EEEFF20
FF9528FF20
FFFB9FFF10
BFFD5EFC00
1AEFFEA200
ENDCHAR
STARTCHAR Ecaron
ENCODING 282
SWIDTH 578 0
DWIDTH 8 0
BBX 9 14 0 0
BITMAP
0048584000
01FCFCD000
00E9BBD000
00BE4F9000
019FFF4000
4EC444D500
DFB8FFFE00
FFB6BCFF20
FFB58AFF20
FFB8FFFF20
FFC344DF20
FFFFFFFF10
BFFFFFFC00
1AEFFEA200
ENDCHAR
STARTCHAR ecaron
ENCODING 283
SWIDTH 578 0
DWIDTH 8 0
BBX 9 14 0 0
BITMAP
0177681000
06FCDE8000
05F88F7000
01F99F3000
01DFFE1000
4E8447E500
DF4FF4FE00
FF2551FF20
FF4EEEFF20
FF4EEEFF20
FF9558FF20
FFFFFFFF10
BFFFFFFC00
1AEFFEA200
ENDCHAR
STARTCHAR Gcircumflex
ENCODING 284
SWIDTH 578 0
DWIDTH 8 0
BBX 9 14 0 0
BITMAP
002CE60000
009D9E1000
01E88F6000
04FACCA000
03FFFF7000
4EB444D500
DF5EFFFE00
FF5EFFFF20
FF5EA37F20
FF5EFC7F20
FF9443BF20
FFFFFFFF10
BFFFFFFC00
1AEFFEA200
ENDCHAR
STARTCHAR gcircumflex
ENCODING 285
SWIDTH 578 0
DWIDTH 8 0
BBX 9 14 0 0
BITMAP
002CE60000
009D9E1000
01E88F6000
04FACCA000
03FFFF7000
4EB444D500
DF5EFFFE00
FF5EFFFF20
FF5EA37F20
FF5EFC7F20
FF9443BF20
FFFFFFFF10
BFFFFFFC00
1AEFFEA200
ENDCHAR
STARTCHAR Gbreve
ENCODING 286
SWIDTH 578 0
DWIDTH 8 0
BBX 9 14 0 0
BITMAP
0000100000
01AFFD4000
0AFFFFF100
0CF46AF200
05FFFFA000
4EB444D500
DF5EFFFE00
FF5EFFFF20
FF5EA37F20
FF5EFC7F20
FF9443BF20
FFFFFFFF10
BFFFFFFC00
1AEFFEA200
ENDCHAR
STARTCHAR gbreve
ENCODING 287
SWIDTH 578 0
DWIDTH 8 0
BBX 9 13 0 0
BITMAP
02BFFC3000
0CFFFFD000
0ED45CF000
07FFFF8000
4EB444D500
DF5EFFFE00
FF5EFFFF20
FF5EA37F20
FF5EFC7F20
FF9443BF20
FFFFFFFF10
BFFFFFFC00
1AEFFEA200
ENDCHAR
STARTCHAR Gdotaccent
ENCODING 288
SWIDTH 578 0
DWIDTH 8 0
BBX 9 13 0 0
BITMAP
02BFFC3000
0CFEEFD000
0EFAAFF000
09FFFFA000
4EB444D500
DF5EFFFE00
FF5EFFFF20
FF5EA37F20
FF5EFC7F20
FF9443BF20
FFFFFFFF10
BFFFFFFC00
1AEFFEA200
ENDCHAR
STARTCHAR gdotaccent
ENCODING 289
SWIDTH 578 0
DWIDTH 8 0
BBX 9 13 0 0
BITMAP
02BFFC3000
0CFEEFD000
0EFAAFF000
09FFFFA000
4EB444D500
DF5EFFFE00
FF5EFFFF20
FF5EA37F20
FF5EFC7F20
FF9443BF20
FFFFFFFF10
BFFFFFFC00
1AEFFEA200
ENDCHAR
STARTCHAR Gcommaaccent
ENCODING 290
SWIDTH 578 0
DWIDTH 8 0
BBX 9 10 0 0
BITMAP
0145541000
4EB444D500
DF5EFFFE00
FF5EFFFF20
FF5EA37F20
FF5EFC7F20
FF9443BF20
FFFE7FFF10
BFFF5FFC00
1AEFEEA200
ENDCHAR
STARTCHAR gcommaaccent
ENCODING 291
SWIDTH 578 0
DWIDTH 8 0
BBX 9 10 0 0
BITMAP
0145541000
4EB444D500
DF5EFFFE00
FF5EFFFF20
FF5EA37F20
FF5EFC7F20
FF9443BF20
FFFE7FFF10
BFFF5FFC00
1AEFEEA200
ENDCHAR
STARTCHAR Hcircumflex
ENCODING 292
SWIDTH 578 0
DWIDTH 8 0
BBX 9 14 0 0
BITMAP
002CE60000
009D9E1000
01E88F6000
04FADCA000
03FFFF7000
4E7FFD9500
DF4FFC7E00
FF4AA87F20
FF4AA87F20
FF4FFC7F20
FF5FFC8F20
FFFFFFFF10
BFFFFFFC00
1AEFFEA200
ENDCHAR
STARTCHAR hcircumflex
ENCODING 293
SWIDTH 578 0
DWIDTH 8 0
BBX 9 14 0 0
BITMAP
001CE70000
008D9F1000
00E88E7000
03FADCB000
02FFFF7000
4E7FFD9500
DF4FFC7E00
FF4AA87F20
FF4AA87F20
FF4FFC7F20
FF5FFC8F20
FFFFFFFF10
BFFFFFFC00
1AEFFEA200
ENDCHAR
STARTCHAR Hbar
ENCODING 294
SWIDTH 578 0
DWIDTH 8 0
BBX 9 14 0 0
BITMAP
0000100000
01AFFD4000
0AFCCEF100
0CD66CF200
05FFFFA000
4E7FFD9500
DF4FFC7E00
FF4AA87F20
FF4AA87F20
FF4FFC7F20
FF5FFC8F20
FFFFFFFF10
BFFFFFFC00
1AEFFEA200
ENDCHAR
STARTCHAR hbar
ENCODING 295
SWIDTH 578 0
DWIDTH 8 0
BBX 9 10 0 0
BITMAP
0145541000
4E7FFD9500
DE26654E00
FF4AA87F20
FF4AA87F20
FF4FFC7F20
FF5FFC8F20
FFFFFFFF10
BFFFFFFC00
1AEFFEA200
ENDCHAR
STARTCHAR Itilde
ENCODING 296
SWIDTH 578 0
DWIDTH 8 0
BBX 9 14 0 0
BITMAP
0005750000
01DFFFB000
07FFFFF500
07E575F600
03FFFFF100
4E9444A500
DFFF4FFE00
FFFF4FFF20
FFFF4FFF20
FFFF4FFF20
FF9424BF20
FFFFFFFF10
BFFFFFFC00
1AEFFEA200
ENDCHAR
STARTCHAR itilde
ENCODING 297
SWIDTH 578 0
DWIDTH 8 0
BBX 9 14 0 0
BITMAP
0015740000
01DFFFB000
07FFFFF500
08E575F500
03FFFFE100
4E9444A500
DFFF4FFE00
FFFF4FFF20
FFFF4FFF20
FFFF4FFF20
FF9424BF20
FFFFFFFF10
BFFFFFFC00
1AEFFEA200
ENDCHAR
STARTCHAR Imacron
ENCODING 298
SWIDTH 578 0
DWIDTH 8 0
BBX 9 14 0 0
BITMAP
0000100000
009EFE6000
07FCCEF300
09F66AF500
03FFFFC000
4E9444A500
DFFF4FFE00
FFFF4FFF20
FFFF4FFF20
FFFF4FFF20
FF9424BF20
FFFFFFFF10
BFFFFFFC00
1AEFFEA200
ENDCHAR
STARTCHAR imacron
ENCODING 299
SWIDTH 578 0
DWIDTH 8 0
BBX 9 14 0 0
BITMAP
0000100000
019EFD6000
08FCCEF300
09F66AF400
04FFFFC000
4E9444A500
DFFF4FFE00
FFFF4FFF20
FFFF4FFF20
FFFF4FFF20
FF9424BF20
FFFFFFFF10
BFFFFFFC00
1AEFFEA200
ENDCHAR
STARTCHAR Ibreve
ENCODING 300
SWIDTH 578 0
DWIDTH 8 0
BBX 9 14 0 0
BITMAP
0000100000
008EFE7000
06FFFFF400
08F677F600
03FFFFD100
4E9444A500
DFFF4FFE00
FFFF4FFF20
FFFF4FFF20
FFFF4FFF20
FF9424BF20
FFFFFFFF10
BFFFFFFC00
1AEFFEA200
ENDCHAR
STARTCHAR ibreve
ENCODING 301
SWIDTH 578 0
DWIDTH 8 0
BBX 9 14 0 0
BITMAP
0000100000
009EFE7000
07FFFFF400
08F677F500
03FFFFD100
4E9444A500
DFFF4FFE00
FFFF4FFF20
FFFF4FFF20
FFFF4FFF20
FF9424BF20
FFFFFFFF10
BFFFFFFC00
1AEFFEA200
ENDCHAR
STARTCHAR Iogonek
ENCODING 302
SWIDTH 578 0
DWIDTH 8 0
BBX 9 10 0 0
BITMAP
0145541000
4E9444A500
DFFF4FFE00
FFFF4FFF20
FFFF4FFF20
FFFF4FFF20
FF9424AF20
FFFFF5EF10
BFFFF4CC00
1AEFFEA200
ENDCHAR
STARTCHAR iogonek
ENCODING 303
SWIDTH 578 0
DWIDTH 8 0
BBX 9 10 0 0
BITMAP
0145541000
4E9444A500
DFFF4FFE00
FFFF4FFF20
FFFF4FFF20
FFFF4FFF20
FF9424AF20
FFFFF5EF10
BFFFF4CC00
1AEFFEA200
ENDCHAR
STARTCHAR Idotaccent
ENCODING 304
SWIDTH 578 0
DWIDTH 8 0
BBX 9 14 0 0
BITMAP
0000100000
01AFFD4000
0AFEDFF100
0CFC8FF200
07FFFFC000
4E9444A500
DFFF4FFE00
FFFF4FFF20
FFFF4FFF20
FFFF4FFF20
FF9424BF20
FFFFFFFF10
BFFFFFFC00
1AEFFEA200
ENDCHAR
STARTCHAR dotlessi
ENCODING 305
SWIDTH 578 0
DWIDTH 8 0
BBX 9 10 0 0
BITMAP
0145541000
4E9444A500
DFFF4FFE00
FFFF4FFF20
FFFF4FFF20
FFFF4FFF20
FF9424BF20
FFFFFFFF10
BFFFFFFC00
1AEFFEA200
ENDCHAR
STARTCHAR IJ
ENCODING 306
SWIDTH 578 0
DWIDTH 8 0
BBX 9 10 0 0
BITMAP
0145541000
4644EF6500
DF4FFF4E00
FF4FFF4F20
FF4FFF4F20
FF4FFF4F20
F724947F20
FFFFFFFF10
BFFFFFFC00
1AEFFEA200
ENDCHAR
STARTCHAR ij
ENCODING 307
SWIDTH 578 0
DWIDTH 8 0
BBX 9 10 0 0
BITMAP
0145541000
4644EF6500
DF4FFF4E00
FF4FFF4F20
FF4FFF4F20
FF4FFF4F20
F724947F20
FFFFFFFF10
BFFFFFFC00
1AEFFEA200
ENDCHAR
STARTCHAR Jcircumflex
ENCODING 308
SWIDTH 578 0
DWIDTH 8 0
BBX 9 14 0 0
BITMAP
001BF80000
007E8F2000
00D98E8000
02FAEBC000
02EFFF8000
4EFFBBE500
DFFFA9FE00
FFFFA9FF20
FFFFA9FF20
FFFFA9FF20
FFF53CFF20
FFFFFFFF10
BFFFFFFC00
1AEFFEA200
ENDCHAR
STARTCHAR jcircumflex
ENCODING 309
SWIDTH 578 0
DWIDTH 8 0
BBX 9 14 0 0
BITMAP
001BF80000
007E8F2000
00D98E8000
02FAEBC000
02EFFF8000
4EFFBBE500
DFFFA9FE00
FFFFA9FF20
FFFFA9FF20
FFFFA9FF20
FFF53CFF20
FFFFFFFF10
BFFFFFFC00
1AEFFEA200
ENDCHAR
STARTCHAR Kcommaaccent
ENCODING 310
SWIDTH 578 0
DWIDTH 8 0
BBX 9 10 0 0
BITMAP
0145541000
4ED9FC7500
DFC7C3EE00
FFC43EFF20
FFC33EFF20
FFC7C4EF20
FFC8FA8F20
FFFE7FFF10
BFFF5FFC00
1AEFEEA200
ENDCHAR
STARTCHAR kcommaaccent
ENCODING 311
SWIDTH 578 0
DWIDTH 8 0
BBX 9 10 0 0
BITMAP
0145541000
4ED9FC7500
DFC7C3EE00
FFC43EFF20
FFC33EFF20
FFC7C4EF20
FFC8FA8F20
FFFE7FFF10
BFFF5FFC00
1AEFEEA200
ENDCHAR
STARTCHAR kgreenlandic
ENCODING 312
SWIDTH 578 0
DWIDTH 8 0
BBX 9 10 0 0
BITMAP
0145541000
4ED9FC7500
DFC7C3EE00
FFC43EFF20
FFC33EFF20
FFC7C4EF20
FFC8FA8F20
FFFFFFFF10
BFFFFFFC00
1AEFFEA200
ENDCHAR
STARTCHAR Lacute
ENCODING 313
SWIDTH 578 0
DWIDTH 8 0
BBX 9 14 0 0
BITMAP
0019A50000
008EAF2000
00D9BE1000
01F9F60000
01EFF51000
4EF7FFE500
DFF4FFFE00
FFF4FFFF20
FFF4FFFF20
FFF4FFFF20
FFF345FF20
FFFFFFFF10
BFFFFFFC00
1AEFFEA200
ENDCHAR
STARTCHAR lacute
ENCODING 314
SWIDTH 578 0
DWIDTH 8 0
BBX 9 14 0 0
BITMAP
0019A50000
008EAF2000
00D9BE1000
01F9F60000
01EFF51000
4EF7FFE500
DFF4FFFE00
FFF4FFFF20
FFF4FFFF20
FFF4FFFF20
FFF345FF20
FFFFFFFF10
BFFFFFFC00
1AEFFEA200
ENDCHAR
STARTCHAR Lcommaaccent
ENCODING 315
SWIDTH 578 0
DWIDTH 8 0
BBX 9 10 0 0
BITMAP
0145541000
4EF7FFE500
DFF4FFFE00
FFF4FFFF20
FFF4FFFF20
FFF4FFFF20
FFF345FF20
FFFE7FFF10
BFFF5FFC00
1AEFEEA200
ENDCHAR
STARTCHAR lcommaaccent
ENCODING 316
SWIDTH 578 0
DWIDTH 8 0
BBX 9 10 0 0
BITMAP
0145541000
4EF7FFE500
DFF4FFFE00
FFF4FFFF20
FFF4FFFF20
FFF4FFFF20
FFF345FF20
FFFE7FFF10
BFFF5FFC00
1AEFEEA200
ENDCHAR
STARTCHAR Lcaron
ENCODING 317
SWIDTH 578 0
DWIDTH 8 0
BBX 9 10 0 0
BITMAP
0145541000
4EF7C7E500
DFF4E7FE00
FFF4FFFF20
FFF4FFFF20
FFF4FFFF20
FFF345FF20
FFFFFFFF10
BFFFFFFC00
1AEFFEA200
ENDCHAR
STARTCHAR lcaron
ENCODING 318
SWIDTH 578 0
DWIDTH 8 0
BBX 9 10 0 0
BITMAP
0145541000
4EF7C7E500
DFF4E7FE00
FFF4FFFF20
FFF4FFFF20
FFF4FFFF20
FFF345FF20
FFFFFFFF10
BFFFFFFC00
1AEFFEA200
ENDCHAR
STARTCHAR Ldot
ENCODING 319
SWIDTH 578 0
DWIDTH 8 0
BBX 9 10 0 0
BITMAP
0145541000
4EF7FFE500
DFF4FFFE00
FFF47BFF20
FFF4FFFF20
FFF4FFFF20
FFF345FF20
FFFFFFFF10
BFFFFFFC00
1AEFFEA200
ENDCHAR
STARTCHAR ldot
ENCODING 320
SWIDTH 578 0
DWIDTH 8 0
BBX 9 10 0 0
BITMAP
0145541000
4EF7FFE500
DFF4FFFE00
FFF47BFF20
FFF4FFFF20
FFF4FFFF20
FFF345FF20
FFFFFFFF10
BFFFFFFC00
1AEFFEA200
ENDCHAR
STARTCHAR Lslash
ENCODING 321
SWIDTH 578 0
DWIDTH 8 0
BBX 9 10 0 0
BITMAP
0145541000
4EF7FFE500
DFF4FFFE00
FFF2BFFF20
FFA4FFFF20
FFF4FFFF20
FFF345FF20
FFFFFFFF10
BFFFFFFC00
1AEFFEA200
ENDCHAR
STARTCHAR lslash
ENCODING 322
SWIDTH 578 0
DWIDTH 8 0
BBX 9 10 0 0
BITMAP
0145541000
4EF7FFE500
DFF4FFFE00
FFF2BFFF20
FFA4FFFF20
FFF4FFFF20
FFF345FF20
FFFFFFFF10
BFFFFFFC00
1AEFFEA200
ENDCHAR
STARTCHAR Nacute
ENCODING 323
SWIDTH 578 0
DWIDTH 8 0
BBX 9 14 0 0
BITMAP
0005A92000
000EAEB000
004F5F8000
008EAE1000
017FFA1000
4E7445D500
DF4FF9AE00
FF4FFA9F20
FF4FFA9F20
FF4FFA9F20
FF5FFAAF20
FFFFFFFF10
BFFFFFFC00
1AEFFEA200
ENDCHAR
STARTCHAR nacute
ENCODING 324
SWIDTH 578 0
DWIDTH 8 0
BBX 9 14 0 0
BITMAP
0005A92000
000EAEB000
004F5F8000
008EAE1000
017FFA1000
4E7445D500
DF4FF9AE00
FF4FFA9F20
FF4FFA9F20
FF4FFA9F20
FF5FFAAF20
FFFFFFFF10
BFFFFFFC00
1AEFFEA200
ENDCHAR
STARTCHAR Ncommaaccent
ENCODING 325
SWIDTH 578 0
DWIDTH 8 0
BBX 9 10 0 0
BITMAP
0145541000
4E7445D500
DF4FF9AE00
FF4FFA9F20
FF4FFA9F20
FF4FFA9F20
FF5FFAAF20
FFFE7FFF10
BFFF5FFC00
1AEFEEA200
ENDCHAR
STARTCHAR ncommaaccent
ENCODING 326
SWIDTH 578 0
DWIDTH 8 0
BBX 9 10 0 0
BITMAP
0145541000
4E7445D500
DF4FF9AE00
FF4FFA9F20
FF4FFA9F20
FF4FFA9F20
FF5FFAAF20
FFFE7FFF10
BFFF5FFC00
1AEFEEA200
ENDCHAR
STARTCHAR Ncaron
ENCODING 327
SWIDTH 578 0
DWIDTH 8 0
BBX 9 14 0 0
BITMAP
0177681000
06FCDE8000
05F88F7000
01F99F3000
01DFFE1000
4E7445D500
DF4FF9AE00
FF4FFA9F20
FF4FFA9F20
FF4FFA9F20
FF5FFAAF20
FFFFFFFF10
BFFFFFFC00
1AEFFEA200
ENDCHAR
STARTCHAR ncaron
ENCODING 328
SWIDTH 578 0
DWIDTH 8 0
BBX 9 14 0 0
BITMAP
0177681000
06FCDE8000
05F88F7000
01F99F3000
01DFFE1000
4E7445D500
DF4FF9AE00
FF4FFA9F20
FF4FFA9F20
FF4FFA9F20
FF5FFAAF20
FFFFFFFF10
BFFFFFFC00
1AEFFEA200
ENDCHAR
STARTCHAR napostrophe
ENCODING 329
SWIDTH 578 0
DWIDTH 8 0
BBX 9 10 0 0
BITMAP
0145541000
4D7445D500
A44FF9AE00
FB4FFA9F20
FF4FFA9F20
FF4FFA9F20
FF5FFAAF20
FFFFFFFF10
BFFFFFFC00
1AEFFEA200
ENDCHAR
STARTCHAR Eng
ENCODING 330
SWIDTH 578 0
DWIDTH 8 0
BBX 9 10 0 0
BITMAP
0145541000
4E7445D500
DF4FF9AE00
FF4FFA9F20
FF4FFA9F20
FF4FFA9F20
FF5FFA9F20
FFFFF99F10
BFFF54CC00
1AEFFEA200
ENDCHAR
STARTCHAR eng
ENCODING 331
SWIDTH 578 0
DWIDTH 8 0
BBX 9 10 0 0
BITMAP
0145541000
4E7445D500
DF4FF9AE00
FF4FFA9F20
FF4FFA9F20
FF4FFA9F20
FF5FFA9F20
FFFFF99F10
BFFF54CC00
1AEFFEA200
ENDCHAR
STARTCHAR Omacron
ENCODING 332
SWIDTH 578 0
DWIDTH 8 0
BBX 9 14 0 0
BITMAP
0000100000
009EFD6000
08FCCEF300
09F66AF500
03FFFFC000
4EA444C500
DF4FFB7E00
FF4FFC7F20
FF4FFC7F20
FF4FFC7F20
FF8443BF20
FFFFFFFF10
BFFFFFFC00
1AEFFEA200
ENDCHAR
STARTCHAR omacron
ENCODING 333
SWIDTH 578 0
DWIDTH 8 0
BBX 9 14 0 0
BITMAP
0000100000
009EFD6000
08FCCEF300
09F66AF500
03FFFFC000
4EA444C500
DF4FFB7E00
FF4FFC7F20
FF4FFC7F20
FF4FFC7F20
FF8443BF20
FFFFFFFF10
BFFFFFFC00
1AEFFEA200
ENDCHAR
STARTCHAR Obreve
ENCODING 334
SWIDTH 578 0
DWIDTH 8 0
BBX 9 14 0 0
BITMAP
0000100000
009EFD6000
08FFFFF300
09F578F500
03FFFFC000
4EA444C500
DF4FFB7E00
FF4FFC7F20
FF4FFC7F20
FF4FFC7F20
FF8443BF20
FFFFFFFF10
BFFFFFFC00
1AEFFEA200
ENDCHAR
STARTCHAR obreve
ENCODING 335
SWIDTH 578 0
DWIDTH 8 0
BBX 9 14 0 0
BITMAP
0000100000
009EFD6000
08FFFFF300
09F578F500
03FFFFC000
4EA444C500
DF4FFB7E00
FF4FFC7F20
FF4FFC7F20
FF4FFC7F20
FF8443BF20
FFFFFFFF10
BFFFFFFC00
1AEFFEA200
ENDCHAR
STARTCHAR Ohungarumlaut
ENCODING 336
SWIDTH 578 0
DWIDTH 8 0
BBX 9 14 0 0
BITMAP
0002BBC400
000BCDBC00
005F7CBD00
00BCDAF300
01BFFF8000
4EA444C500
DF4FFB7E00
FF4FFC7F20
FF4FFC7F20
FF4FFC7F20
FF8443BF20
FFFFFFFF10
BFFFFFFC00
1AEFFEA200
ENDCHAR
STARTCHAR ohungarumlaut
ENCODING 337
SWIDTH 578 0
DWIDTH 8 0
BBX 9 14 0 0
BITMAP
0002BBC400
000BCDBC00
005F7CBD00
00BCDAF300
01BFFF8000
4EA444C500
DF4FFB7E00
FF4FFC7F20
FF4FFC7F20
FF4FFC7F20
FF8443BF20
FFFFFFFF10
BFFFFFFC00
1AEFFEA200
ENDCHAR
STARTCHAR OE
ENCODING 338
SWIDTH 578 0
DWIDTH 8 0
BBX 9 10 0 0
BITMAP
0145541000
4C54548500
D8BF4FFE00
F8BF3BDF20
F8BF38CF20
F8BF4FFF20
FC34347F20
FFFFFFFF10
BFFFFFFC00
1AEFFEA200
ENDCHAR
STARTCHAR oe
ENCODING 339
SWIDTH 578 0
DWIDTH 8 0
BBX 9 10 0 0
BITMAP
0145541000
4C54548500
D8BF4FFE00
F8BF3BDF20
F8BF38CF20
F8BF4FFF20
FC34347F20
FFFFFFFF10
BFFFFFFC00
1AEFFEA200
ENDCHAR
STARTCHAR Racute
ENCODING 340
SWIDTH 578 0
DWIDTH 8 0
BBX 9 14 0 0
BITMAP
0005A92000
000EAEB000
004F5F8000
008EAE1000
017FFA1000
4E8447E500
DF5EF5DE00
FF5CD5EF20
FF5565FF20
FF5EF7CF20
FF6EF8DF20
FFFFFFFF10
BFFFFFFC00
1AEFFEA200
ENDCHAR
STARTCHAR racute
ENCODING 341
SWIDTH 578 0
DWIDTH 8 0
BBX 9 14 0 0
BITMAP
0005A92000
000EAEB000
004F5F8000
008EAE1000
017FFA1000
4E8447E500
DF5EF5DE00
FF5CD5EF20
FF5565FF20
FF5EF7CF20
FF6EF8DF20
FFFFFFFF10
BFFFFFFC00
1AEFFEA200
ENDCHAR
STARTCHAR Rcommaaccent
ENCODING 342
SWIDTH 578 0
DWIDTH 8 0
BBX 9 10 0 0
BITMAP
0145541000
4E8447E500
DF5EF5DE00
FF5CD5EF20
FF5565FF20
FF5EF7CF20
FF6EF8DF20
FFFE7FFF10
BFFF5FFC00
1AEFEEA200
ENDCHAR
STARTCHAR rcommaaccent
ENCODING 343
SWIDTH 578 0
DWIDTH 8 0
BBX 9 10 0 0
BITMAP
0145541000
4E8447E500
DF5EF5DE00
FF5CD5EF20
FF5565FF20
FF5EF7CF20
FF6EF8DF20
FFFE7FFF10
BFFF5FFC00
1AEFEEA200
ENDCHAR
STARTCHAR Rcaron
ENCODING 344
SWIDTH 578 0
DWIDTH 8 0
BBX 9 14 0 0
BITMAP
0177681000
06FCDE8000
05F88F7000
01F99F3000
01DFFE1000
4E8447E500
DF5EF5DE00
FF5CD5EF20
FF5565FF20
FF5EF7CF20
FF6EF8DF20
FFFFFFFF10
BFFFFFFC00
1AEFFEA200
ENDCHAR
STARTCHAR rcaron
ENCODING 345
SWIDTH 578 0
DWIDTH 8 0
BBX 9 14 0 0
BITMAP
0177681000
06FCDE8000
05F88F7000
01F99F3000
01DFFE1000
4E8447E500
DF5EF5DE00
FF5CD5EF20
FF5565FF20
FF5EF7CF20
FF6EF8DF20
FFFFFFFF10
BFFFFFFC00
1AEFFEA200
ENDCHAR
STARTCHAR Sacute
ENCODING 346
SWIDTH 578 0
DWIDTH 8 0
BBX 9 14 0 0
BITMAP
00029A4000
000BCBF000
001F7DC000
004F9F4000
015FFD1000
4EB444D500
DF6DFFFE00
FF68ABFF20
FFE995AF20
FFFFFA9F20
FFB443CF20
FFFFFFFF10
BFFFFFFC00
1AEFFEA200
ENDCHAR
STARTCHAR sacute
ENCODING 347
SWIDTH 578 0
DWIDTH 8 0
BBX 9 14 0 0
BITMAP
00029A4000
000BCBF000
001F7DC000
004F9F4000
015FFD1000
4EB444D500
DF6DFFFE00
FF68ABFF20
FFE995AF20
FFFFFA9F20
FFB443CF20
FFFFFFFF10
BFFFFFFC00
1AEFFEA200
ENDCHAR
STARTCHAR Scircumflex
ENCODING 348
SWIDTH 578 0
DWIDTH 8 0
BBX 9 14 0 0
BITMAP
000AF90000
005F7F4000
00BA8CA000
00FAFAE000
01EFFF9000
4EB444D500
DF6DFFFE00
FF68ABFF20
FFE995AF20
FFFFFA9F20
FFB443CF20
FFFFFFFF10
BFFFFFFC00
1AEFFEA200
ENDCHAR
STARTCHAR scircumflex
ENCODING 349
SWIDTH 578 0
DWIDTH 8 0
BBX 9 14 0 0
BITMAP
000AF90000
005F7F4000
00BA8CA000
00FAFAE000
01EFFF9000
4EB444D500
DF6DFFFE00
FF68ABFF20
FFE995AF20
FFFFFA9F20
FFB443CF20
FFFFFFFF10
BFFFFFFC00
1AEFFEA200
ENDCHAR
STARTCHAR Scedilla
ENCODING 350
SWIDTH 578 0
DWIDTH 8 0
BBX 9 10 0 0
BITMAP
0145541000
4EB444D500
DF6DFFFE00
FF68ABFF20
FFE995AF20
FFFFFA9F20
FFB433CF20
FFF87FFF10
BFF79FFC00
1AEFEEA200
ENDCHAR
STARTCHAR scedilla
ENCODING 351
SWIDTH 578 0
DWIDTH 8 0
BBX 9 10 0 0
BITMAP
0145541000
4EB444D500
DF6DFFFE00
FF68ABFF20
FFE995AF20
FFFFFA9F20
FFB433CF20
FFF87FFF10
BFF79FFC00
1AEFEEA200
ENDCHAR
STARTCHAR Scaron
ENCODING 352
SWIDTH 578 0
DWIDTH 8 0
BBX 9 14 0 0
BITMAP
0048584000
00ECFCE000
00E9BAE000
00AE4FA000
018FFF5000
4EB444D500
DF6DFFFE00
FF68ABFF20
FFE995AF20
FFFFFA9F20
FFB443CF20
FFFFFFFF10
BFFFFFFC00
1AEFFEA200
ENDCHAR
STARTCHAR scaron
ENCODING 353
SWIDTH 578 0
DWIDTH 8 0
BBX 9 14 0 0
BITMAP
0048584000
00ECFCE000
00E9BAE000
00AE4FA000
018FFF5000
4EB444D500
DF6DFFFE00
FF68ABFF20
FFE995AF20
FFFFFA9F20
FFB443CF20
FFFFFFFF10
BFFFFFFC00
1AEFFEA200
ENDCHAR
STARTCHAR Tcommaaccent
ENCODING 354
SWIDTH 578 0
DWIDTH 8 0
BBX 9 10 0 0
BITMAP
0145541000
4E9444A500
DFFF4FFE00
FFFF4FFF20
FFFF4FFF20
FFFF4FFF20
FFFF5FFF20
FFFE7FFF10
BFFF5FFC00
1AEFEEA200
ENDCHAR
STARTCHAR tcommaaccent
ENCODING 355
SWIDTH 578 0
DWIDTH 8 0
BBX 9 10 0 0
BITMAP
0145541000
4E9444A500
DFFF4FFE00
FFFF4FFF20
FFFF4FFF20
FFFF4FFF20
FFFF5FFF20
FFFE7FFF10
BFFF5FFC00
1AEFEEA200
ENDCHAR
STARTCHAR Tcaron
ENCODING 356
SWIDTH 578 0
DWIDTH 8 0
BBX 9 14 0 0
BITMAP
0058583000
02FCEDC000
01F8ACB000
00CC6F7000
01AFFF3000
4E9444A500
DFFF4FFE00
FFFF4FFF20
FFFF4FFF20
FFFF4FFF20
FFFF5FFF20
FFFFFFFF10
BFFFFFFC00
1AEFFEA200
ENDCHAR
STARTCHAR tcaron
ENCODING 357
SWIDTH 578 0
DWIDTH 8 0
BBX 9 10 0 0
BITMAP
0145541000
4E9444A500
DFFF49BE00
FFFF49BF20
FFFF4FFF20
FFFF4FFF20
FFFF5FFF20
FFFFFFFF10
BFFFFFFC00
1AEFFEA200
ENDCHAR
STARTCHAR Tbar
ENCODING 358
SWIDTH 578 0
DWIDTH 8 0
BBX 9 10 0 0
BITMAP
0145541000
4E9444A500
DFFF4FFE00
FFFD3EFF20
FFF82AFF20
FFFF4FFF20
FFFF5FFF20
FFFFFFFF10
BFFFFFFC00
1AEFFEA200
ENDCHAR
STARTCHAR tbar
ENCODING 359
SWIDTH 578 0
DWIDTH 8 0
BBX 9 10 0 0
BITMAP
0145541000
4E9444A500
DFFF4FFE00
FFFD3EFF20
FFF82AFF20
FFFF4FFF20
FFFF5FFF20
FFFFFFFF10
BFFFFFFC00
1AEFFEA200
ENDCHAR
STARTCHAR Utilde
ENCODING 360
SWIDTH 578 0
DWIDTH 8 0
BBX 9 14 0 0
BITMAP
0015740000
01DFFFB000
08FFFFF400
08D575F500
03FFFFE100
4E7FFC9500
DF4FFB8E00
FF4FFB8F20
FF4FFB8F20
FF4FFB8F20
FF7443CF20
FFFFFFFF10
BFFFFFFC00
1AEFFEA200
ENDCHAR
STARTCHAR utilde
ENCODING 361
SWIDTH 578 0
DWIDTH 8 0
BBX 9 14 0 0
BITMAP
0015740000
01DFFFB000
07FFFFF500
08E575F500
03FFFFE100
4E7FFC9500
DF4FFB8E00
FF4FFB8F20
FF4FFB8F20
FF4FFB8F20
FF7443CF20
FFFFFFFF10
BFFFFFFC00
1AEFFEA200
ENDCHAR
STARTCHAR Umacron
ENCODING 362
SWIDTH 578 0
DWIDTH 8 0
BBX 9 14 0 0
BITMAP
0000100000
009EFE7000
07FCCDF400
08F66AF500
03FFFFD100
4E7FFC9500
DF4FFB8E00
FF4FFB8F20
FF4FFB8F20
FF4FFB8F20
FF7443CF20
FFFFFFFF10
BFFFFFFC00
1AEFFEA200
ENDCHAR
STARTCHAR umacron
ENCODING 363
SWIDTH 578 0
DWIDTH 8 0
BBX 9 14 0 0
BITMAP
0000100000
009EFE7000
07FCCDF400
08F66AF500
03FFFFD100
4E7FFC9500
DF4FFB8E00
FF4FFB8F20
FF4FFB8F20
FF4FFB8F20
FF7443CF20
FFFFFFFF10
BFFFFFFC00
1AEFFEA200
ENDCHAR
STARTCHAR Ubreve
ENCODING 364
SWIDTH 578 0
DWIDTH 8 0
BBX 9 14 0 0
BITMAP
0000100000
009EFE7000
07FFFFF400
08F577F500
03FFFFD100
4E7FFC9500
DF4FFB8E00
FF4FFB8F20
FF4FFB8F20
FF4FFB8F20
FF7443CF20
FFFFFFFF10
BFFFFFFC00
1AEFFEA200
ENDCHAR
STARTCHAR ubreve
ENCODING 365
SWIDTH 578 0
DWIDTH 8 0
BBX 9 14 0 0
BITMAP
0000100000
009EFE7000
07FFFFF400
08F677F500
03FFFFD100
4E7FFC9500
DF4FFB8E00
FF4FFB8F20
FF4FFB8F20
FF4FFB8F20
FF7443CF20
FFFFFFFF10
BFFFFFFC00
1AEFFEA200
ENDCHAR
STARTCHAR Uring
ENCODING 366
SWIDTH 578 0
DWIDTH 8 0
BBX 9 14 0 0
BITMAP
0003510000
008FEE4000
02F679C000
04F679D000
02FFFFA000
4E7FFC9500
DF4FFB8E00
FF4FFB8F20
FF4FFB8F20
FF4FFB8F20
FF7443CF20
FFFFFFFF10
BFFFFFFC00
1AEFFEA200
ENDCHAR
STARTCHAR uring
ENCODING 367
SWIDTH 578 0
DWIDTH 8 0
BBX 9 14 0 0
BITMAP
0003510000
008FEE4000
02F689C000
03F679E000
02FFFFB000
4E7FFC9500
DF4FFB8E00
FF4FFB8F20
FF4FFB8F20
FF4FFB8F20
FF7443CF20
FFFFFFFF10
BFFFFFFC00
1AEFFEA200
ENDCHAR
STARTCHAR Uhungarumlaut
ENCODING 368
SWIDTH 581 0
DWIDTH 8 0
BBX 9 14 0 0
BITMAP
0002BBC400
000BCDBC00
004F7CAD10
00BCDAF400
01BFFF9000
4E7FFC9500
DF4FFB8E00
FF4FFB8F20
FF4FFB8F20
FF4FFB8F20
FF7443CF20
FFFFFFFF10
BFFFFFFC00
1AEFFEA200
ENDCHAR
STARTCHAR uhungarumlaut
ENCODING 369
SWIDTH 582 0
DWIDTH 8 0
BBX 9 14 0 0
BITMAP
0002BBC400
000BCDBC00
004F7CAD10
00BCDAF400
01BFFF9000
4E7FFC9500
DF4FFB8E00
FF4FFB8F20
FF4FFB8F20
FF4FFB8F20
FF7443CF20
FFFFFFFF10
BFFFFFFC00
1AEFFEA200
ENDCHAR
STARTCHAR Uogonek
ENCODING 370
SWIDTH 578 0
DWIDTH 8 0
BBX 9 10 0 0
BITMAP
0145541000
4E7FFC9500
DF4FFB8E00
FF4FFB8F20
FF4FFB8F20
FF4FFB8F20
FF7433CF20
FFFD7FFF10
BFFC4EFC00
1AEFEEA200
ENDCHAR
STARTCHAR uogonek
ENCODING 371
SWIDTH 578 0
DWIDTH 8 0
BBX 9 10 0 0
BITMAP
0145541000
4E7FFC9500
DF4FFB8E00
FF4FFB8F20
FF4FFB8F20
FF4FFB8F20
FF7433CF20
FFFD7FFF10
BFFC4EFC00
1AEFEEA200
ENDCHAR
STARTCHAR Wcircumflex
ENCODING 372
SWIDTH 578 0
DWIDTH 8 0
BBX 9 14 0 0
BITMAP
002CE60000
009D9E1000
01E88F6000
04FACCA000
03FFFF7000
49CEAF6500
D99B4F3E00
FB882E4F20
FD655C6F20
FE54887F20
FF56C3BF20
FFFFFFFF10
BFFFFFFC00
1AEFFEA200
ENDCHAR
STARTCHAR wcircumflex
ENCODING 373
SWIDTH 578 0
DWIDTH 8 0
BBX 9 14 0 0
BITMAP
002CE60000
009D9E1000
01E88F6000
04FACCA000
03FFFF7000
49CEAF6500
D99B4F3E00
FB882E4F20
FD655C6F20
FE54887F20
FF56C3BF20
FFFFFFFF10
BFFFFFFC00
1AEFFEA200
ENDCHAR
STARTCHAR Ycircumflex
ENCODING 374
SWIDTH 578 0
DWIDTH 8 0
BBX 9 14 0 0
BITMAP
001BF80000
007E8F2000
00D98D8000
02FAEBC000
02EFFF8000
4E9CF9B500
DFC5F3FE00
FFF498FF20
FFFA1EFF20
FFFF4FFF20
FFFF5FFF20
FFFFFFFF10
BFFFFFFC00
1AEFFEA200
ENDCHAR
STARTCHAR ycircumflex
ENCODING 375
SWIDTH 578 0
DWIDTH 8 0
BBX 9 14 0 0
BITMAP
001BF80000
007E8F2000
00D98D8000
02FAEBC000
02EFFF8000
4E9CF9B500
DFC5F3FE00
FFF498FF20
FFFA1EFF20
FFFF4FFF20
FFFF5FFF20
FFFFFFFF10
BFFFFFFC00
1AEFFEA200
ENDCHAR
STARTCHAR Ydieresis
ENCODING 376
SWIDTH 578 0
DWIDTH 8 0
BBX 9 13 0 0
BITMAP
007DFC4000
04FBECE000
04F7D9F000
01DFFF7000
4E9CF9B500
DFC5F3FE00
FFF498FF20
FFFA1EFF20
FFFF4FFF20
FFFF5FFF20
FFFFFFFF10
BFFFFFFC00
1AEFFEA200
ENDCHAR
STARTCHAR Zacute
ENCODING 377
SWIDTH 578 0
DWIDTH 8 0
BBX 9 14 0 0
BITMAP
0007A70000
004F9F7000
009D7F4000
00CBDA0000
01BFF61000
4EC446E500
DFFFB7FE00
FFFF4EFF20
FFF99FFF20
FFE4FFFF20
FFB344FF20
FFFFFFFF10
BFFFFFFC00
1AEFFEA200
ENDCHAR
STARTCHAR zacute
ENCODING 378
SWIDTH 578 0
DWIDTH 8 0
BBX 9 14 0 0
BITMAP
0007A70000
004F9F7000
009D7F4000
00CBDA0000
01BFF61000
4EC446E500
DFFFB7FE00
FFFF4EFF20
FFF99FFF20
FFE4FFFF20
FFB344FF20
FFFFFFFF10
BFFFFFFC00
1AEFFEA200
ENDCHAR
STARTCHAR Zdotaccent
ENCODING 379
SWIDTH 578 0
DWIDTH 8 0
BBX 9 13 0 0
BITMAP
02BFFC3000
0CFEEFD000
0EFAAFF000
09FFFFA000
4EC446E500
DFFFB7FE00
FFFF4EFF20
FFF99FFF20
FFE4FFFF20
FFB344FF20
FFFFFFFF10
BFFFFFFC00
1AEFFEA200
ENDCHAR
STARTCHAR zdotaccent
ENCODING 380
SWIDTH 578 0
DWIDTH 8 0
BBX 9 13 0 0
BITMAP
02BFFC3000
0CFEEFD000
0EFAAFF000
09FFFFA000
4EC446E500
DFFFB7FE00
FFFF4EFF20
FFF99FFF20
FFE4FFFF20
FFB344FF20
FFFFFFFF10
BFFFFFFC00
1AEFFEA200
ENDCHAR
STARTCHAR Zcaron
ENCODING 381
SWIDTH 578 0
DWIDTH 8 0
BBX 9 14 0 0
BITMAP
0068682000
04FCED9000
04F88E9000
00EB8F5000
01BFFF2000
4EC446E500
DFFFB7FE00
FFFF4EFF20
FFF99FFF20
FFE4FFFF20
FFB344FF20
FFFFFFFF10
BFFFFFFC00
1AEFFEA200
ENDCHAR
STARTCHAR zcaron
ENCODING 382
SWIDTH 578 0
DWIDTH 8 0
BBX 9 14 0 0
BITMAP
0068682000
04FCED9000
04F88E9000
00EB8F5000
01BFFF2000
4EC446E500
DFFFB7FE00
FFFF4EFF20
FFF99FFF20
FFE4FFFF20
FFB344FF20
FFFFFFFF10
BFFFFFFC00
1AEFFEA200
ENDCHAR
STARTCHAR longs
ENCODING 383
SWIDTH 578 0
DWIDTH 8 0
BBX 9 10 0 0
BITMAP
0145541000
4EFCAEE500
DF8AC6EE00
FF7FDDAF20
FF7F8BBF20
FFCC89FF20
FFFFCFFF20
FFFFFFFF10
BFFFFFFC00
1AEFFEA200
ENDCHAR
STARTCHAR florin
ENCODING 402
SWIDTH 578 0
DWIDTH 8 0
BBX 9 10 0 0
BITMAP
0145541000
4EFC4AE500
DFF6DFFE00
FFE59FFF20
FFE49FFF20
FFF6DFFF20
FFF6DFFF20
FFB4DFFF10
BFDDFFFC00
1AEFFEA200
ENDCHAR
STARTCHAR uni01CD
ENCODING 461
SWIDTH 578 0
DWIDTH 8 0
BBX 9 14 0 0
BITMAP
0058583000
03FCEDB000
02F8ADB000
00DC6F7000
01AFFF3000
4EC547E500
DF8BF4EE00
FF6DF6DF20
FF4553BF20
FF3FF9AF20
FF4FFB9F20
FFFFFFFF10
BFFFFFFC00
1AEFFEA200
ENDCHAR
STARTCHAR uni01CE
ENCODING 462
SWIDTH 578 0
DWIDTH 8 0
BBX 9 14 0 0
BITMAP
0048584000
01FCFCD000
00F9BBC000
00BE5F9000
019FFF4000
4EA447E500
DFFFF5FE00
FFFEE5FF20
FF4552FF20
FF4FF5FF20
FF5443FF20
FFFFFFFF10
BFFFFFFC00
1AEFFEA200
ENDCHAR
STARTCHAR uni01CF
ENCODING 463
SWIDTH 578 0
DWIDTH 8 0
BBX 9 14 0 0
BITMAP
0048584000
00FCFCE000
00E9BAD000
00AE4F9000
018FFF5000
4E9444A500
DFFF4FFE00
FFFF4FFF20
FFFF4FFF20
FFFF4FFF20
FF9424BF20
FFFFFFFF10
BFFFFFFC00
1AEFFEA200
ENDCHAR
STARTCHAR uni01D0
ENCODING 464
SWIDTH 578 0
DWIDTH 8 0
BBX 9 14 0 0
BITMAP
0048584000
01FCFCE000
00E9BAD000
00AE4F9000
018FFF5000
4E9444A500
DFFF4FFE00
FFFF4FFF20
FFFF4FFF20
FFFF4FFF20
FF9424BF20
FFFFFFFF10
BFFFFFFC00
1AEFFEA200
ENDCHAR
STARTCHAR uni01D1
ENCODING 465
SWIDTH 578 0
DWIDTH 8 0
BBX 9 14 0 0
BITMAP
0058583000
01FCFCD000
01F8ABC000
00BD5F8000
019FFF4000
4EA444C500
DF4FFB7E00
FF4FFC7F20
FF4FFC7F20
FF4FFC7F20
FF8443BF20
FFFFFFFF10
BFFFFFFC00
1AEFFEA200
ENDCHAR
STARTCHAR uni01D3
ENCODING 467
SWIDTH 578 0
DWIDTH 8 0
BBX 9 14 0 0
BITMAP
0048584000
01FCFCD000
00E9BBD000
00BE4F9000
019FFF4000
4E7FFC9500
DF4FFB8E00
FF4FFB8F20
FF4FFB8F20
FF4FFB8F20
FF7443CF20
FFFFFFFF10
BFFFFFFC00
1AEFFEA200
ENDCHAR
STARTCHAR uni01D4
ENCODING 468
SWIDTH 578 0
DWIDTH 8 0
BBX 9 14 0 0
BITMAP
0048584000
01FCFCE000
00E9BAD000
00AE4F9000
018FFF5000
4E7FFC9500
DF4FFB8E00
FF4FFB8F20
FF4FFB8F20
FF4FFB8F20
FF7443CF20
FFFFFFFF10
BFFFFFFC00
1AEFFEA200
ENDCHAR
STARTCHAR uni0200
ENCODING 512
SWIDTH 578 0
DWIDTH 8 0
BBX 9 14 0 0
BITMAP
07CCA00000
2EBBE70000
3F8D9E1000
08EBBE7000
01EFFF5000
4EC547E500
DF8BF4EE00
FF6DF6DF20
FF4553BF20
FF3FF9AF20
FF4FFB9F20
FFFFFFFF10
BFFFFFFC00
1AEFFEA200
ENDCHAR
STARTCHAR uni0201
ENCODING 513
SWIDTH 578 0
DWIDTH 8 0
BBX 9 14 0 0
BITMAP
07CCA00000
2EBBE70000
3F8D9E1000
08EBBE7000
01EFFF5000
4EA447E500
DFFFF5FE00
FFFEE5FF20
FF4552FF20
FF4FF5FF20
FF5443FF20
FFFFFFFF10
BFFFFFFC00
1AEFFEA200
ENDCHAR
STARTCHAR uni0202
ENCODING 514
SWIDTH 578 0
DWIDTH 8 0
BBX 9 13 0 0
BITMAP
008DEB4000
08FFEFE200
0AF469F400
05FFFFC000
4EE669F500
DF8BF4EE00
FF6DF6DF20
FF4553BF20
FF3FF9AF20
FF4FFB9F20
FFFFFFFF10
BFFFFFFC00
1AEFFEA200
ENDCHAR
STARTCHAR uni0203
ENCODING 515
SWIDTH 578 0
DWIDTH 8 0
BBX 9 13 0 0
BITMAP
008DEB4000
08FFEFE200
0AF469F400
05FFFFC000
4EB669F500
DFFFF5FE00
FFFEE5FF20
FF4552FF20
FF4FF5FF20
FF5443FF20
FFFFFFFF10
BFFFFFFC00
1AEFFEA200
ENDCHAR
STARTCHAR uni0204
ENCODING 516
SWIDTH 578 0
DWIDTH 8 0
BBX 9 14 0 0
BITMAP
07CCA00000
2EBBE70000
3F8D9E1000
08EBBE7000
01EFFF5000
4EC444D500
DFB8FFFE00
FFB6BCFF20
FFB58AFF20
FFB8FFFF20
FFC344DF20
FFFFFFFF10
BFFFFFFC00
1AEFFEA200
ENDCHAR
STARTCHAR uni0205
ENCODING 517
SWIDTH 578 0
DWIDTH 8 0
BBX 9 14 0 0
BITMAP
07CCA00000
2EBBE70000
3F8D9E1000
08EBBE7000
01EFFF5000
4E8447E500
DF4FF4FE00
FF2551FF20
FF4EEEFF20
FF4EEEFF20
FF9558FF20
FFFFFFFF10
BFFFFFFC00
1AEFFEA200
ENDCHAR
STARTCHAR uni0206
ENCODING 518
SWIDTH 578 0
DWIDTH 8 0
BBX 9 13 0 0
BITMAP
008DEB4000
08FFEFE200
0AF469F400
05FFFFC000
4ED666E500
DFB8FFFE00
FFB6BCFF20
FFB58AFF20
FFB8FFFF20
FFC344DF20
FFFFFFFF10
BFFFFFFC00
1AEFFEA200
ENDCHAR
STARTCHAR uni0207
ENCODING 519
SWIDTH 578 0
DWIDTH 8 0
BBX 9 13 0 0
BITMAP
008DEB4000
08FFEFE200
0AF469F400
05FFFFC000
4E9669F500
DF4FF4FE00
FF2551FF20
FF4EEEFF20
FF4EEEFF20
FF9558FF20
FFFFFFFF10
BFFFFFFC00
1AEFFEA200
ENDCHAR
STARTCHAR uni0208
ENCODING 520
SWIDTH 578 0
DWIDTH 8 0
BBX 9 14 0 0
BITMAP
07CCA00000
2EBBE70000
3F8D9E1000
08EBBE7000
01EFFF5000
4E9444A500
DFFF4FFE00
FFFF4FFF20
FFFF4FFF20
FFFF4FFF20
FF9424BF20
FFFFFFFF10
BFFFFFFC00
1AEFFEA200
ENDCHAR
STARTCHAR uni0209
ENCODING 521
SWIDTH 578 0
DWIDTH 8 0
BBX 9 14 0 0
BITMAP
07CCA00000
2EBBE70000
3F8D9E1000
08EBBE7000
01EFFF5000
4E9444A500
DFFF4FFE00
FFFF4FFF20
FFFF4FFF20
FFFF4FFF20
FF9424BF20
FFFFFFFF10
BFFFFFFC00
1AEFFEA200
ENDCHAR
STARTCHAR uni020A
ENCODING 522
SWIDTH 578 0
DWIDTH 8 0
BBX 9 13 0 0
BITMAP
008DEB4000
08FFEFE200
0AF469F400
05FFFFC000
4EA666A500
DFFF4FFE00
FFFF4FFF20
FFFF4FFF20
FFFF4FFF20
FF9424BF20
FFFFFFFF10
BFFFFFFC00
1AEFFEA200
ENDCHAR
STARTCHAR uni020B
ENCODING 523
SWIDTH 578 0
DWIDTH 8 0
BBX 9 13 0 0
BITMAP
008DEB4000
08FFEFE200
0AF469F400
05FFFFC000
4EA666A500
DFFF4FFE00
FFFF4FFF20
FFFF4FFF20
FFFF4FFF20
FF9424BF20
FFFFFFFF10
BFFFFFFC00
1AEFFEA200
ENDCHAR
STARTCHAR uni020C
ENCODING 524
SWIDTH 578 0
DWIDTH 8 0
BBX 9 14 0 0
BITMAP
07CCA00000
2EBBE70000
3F8D9E1000
08EBBE7000
01EFFF5000
4EA444C500
DF4FFB7E00
FF4FFC7F20
FF4FFC7F20
FF4FFC7F20
FF8443BF20
FFFFFFFF10
BFFFFFFC00
1AEFFEA200
ENDCHAR
STARTCHAR uni020D
ENCODING 525
SWIDTH 578 0
DWIDTH 8 0
BBX 9 14 0 0
BITMAP
07CCA00000
2EBBE70000
3F8D9E1000
08EBBE7000
01EFFF5000
4EA444C500
DF4FFB7E00
FF4FFC7F20
FF4FFC7F20
FF4FFC7F20
FF8443BF20
FFFFFFFF10
BFFFFFFC00
1AEFFEA200
ENDCHAR
STARTCHAR uni020E
ENCODING 526
SWIDTH 578 0
DWIDTH 8 0
BBX 9 13 0 0
BITMAP
008DEB4000
08FFEFE200
0AF469F400
05FFFFC000
4EB666C500
DF4FFB7E00
FF4FFC7F20
FF4FFC7F20
FF4FFC7F20
FF8443BF20
FFFFFFFF10
BFFFFFFC00
1AEFFEA200
ENDCHAR
STARTCHAR uni020F
ENCODING 527
SWIDTH 578 0
DWIDTH 8 0
BBX 9 13 0 0
BITMAP
008DEB4000
08FFEFE200
0AF469F400
05FFFFC000
4EB666C500
DF4FFB7E00
FF4FFC7F20
FF4FFC7F20
FF4FFC7F20
FF8443BF20
FFFFFFFF10
BFFFFFFC00
1AEFFEA200
ENDCHAR
STARTCHAR uni0210
ENCODING 528
SWIDTH 578 0
DWIDTH 8 0
BBX 9 14 0 0
BITMAP
07CCA00000
2EBBE70000
3F8D9E1000
08EBBE7000
01EFFF5000
4E8447E500
DF5EF5DE00
FF5CD5EF20
FF5565FF20
FF5EF7CF20
FF6EF8DF20
FFFFFFFF10
BFFFFFFC00
1AEFFEA200
ENDCHAR
STARTCHAR uni0211
ENCODING 529
SWIDTH 578 0
DWIDTH 8 0
BBX 9 14 0 0
BITMAP
07CCA00000
2EBBE70000
3F8D9E1000
08EBBE7000
01EFFF5000
4E8447E500
DF5EF5DE00
FF5CD5EF20
FF5565FF20
FF5EF7CF20
FF6EF8DF20
FFFFFFFF10
BFFFFFFC00
1AEFFEA200
ENDCHAR
STARTCHAR uni0212
ENCODING 530
SWIDTH 578 0
DWIDTH 8 0
BBX 9 13 0 0
BITMAP
008DEB4000
08FFEFE200
0AF469F400
05FFFFC000
4E9668F500
DF5EF5DE00
FF5CD5EF20
FF5565FF20
FF5EF7CF20
FF6EF8DF20
FFFFFFFF10
BFFFFFFC00
1AEFFEA200
ENDCHAR
STARTCHAR uni0213
ENCODING 531
SWIDTH 578 0
DWIDTH 8 0
BBX 9 13 0 0
BITMAP
008DEB4000
08FFEFE200
0AF469F400
05FFFFC000
4E9668F500
DF5EF5DE00
FF5CD5EF20
FF5565FF20
FF5EF7CF20
FF6EF8DF20
FFFFFFFF10
BFFFFFFC00
1AEFFEA200
ENDCHAR
STARTCHAR uni0214
ENCODING 532
SWIDTH 578 0
DWIDTH 8 0
BBX 9 14 0 0
BITMAP
07CCA00000
2EBBE70000
3F8D9E1000
08EBBE7000
01EFFF5000
4E7FFC9500
DF4FFB8E00
FF4FFB8F20
FF4FFB8F20
FF4FFB8F20
FF7443CF20
FFFFFFFF10
BFFFFFFC00
1AEFFEA200
ENDCHAR
STARTCHAR uni0215
ENCODING 533
SWIDTH 578 0
DWIDTH 8 0
BBX 9 14 0 0
BITMAP
07CCA00000
2EBBE70000
3F8D9E1000
08EBBE7000
01EFFF5000
4E7FFC9500
DF4FFB8E00
FF4FFB8F20
FF4FFB8F20
FF4FFB8F20
FF7443CF20
FFFFFFFF10
BFFFFFFC00
1AEFFEA200
ENDCHAR
STARTCHAR uni0216
ENCODING 534
SWIDTH 578 0
DWIDTH 8 0
BBX 9 13 0 0
BITMAP
008DEB4000
08FFEFE200
0AF469F400
05FFFFC000
4E8FFE9500
DF4FFB8E00
FF4FFB8F20
FF4FFB8F20
FF4FFB8F20
FF7443CF20
FFFFFFFF10
BFFFFFFC00
1AEFFEA200
ENDCHAR
STARTCHAR uni0217
ENCODING 535
SWIDTH 578 0
DWIDTH 8 0
BBX 9 13 0 0
BITMAP
008DEB4000
08FFEFE200
0AF469F400
05FFFFC000
4E8FFE9500
DF4FFB8E00
FF4FFB8F20
FF4FFB8F20
FF4FFB8F20
FF7443CF20
FFFFFFFF10
BFFFFFFC00
1AEFFEA200
ENDCHAR
STARTCHAR uni0218
ENCODING 536
SWIDTH 578 0
DWIDTH 8 0
BBX 9 10 0 0
BITMAP
0145541000
4EB444D500
DF6DFFFE00
FF68ABFF20
FFE995AF20
FFFFFA9F20
FFB443CF20
FFFE7FFF10
BFFE6FFC00
1AEFFEA200
ENDCHAR
STARTCHAR uni0219
ENCODING 537
SWIDTH 578 0
DWIDTH 8 0
BBX 9 10 0 0
BITMAP
0145541000
4EB444D500
DF6DFFFE00
FF68ABFF20
FFE995AF20
FFFFFA9F20
FFB443CF20
FFFE7FFF10
BFFE6FFC00
1AEFFEA200
ENDCHAR
STARTCHAR uni021A
ENCODING 538
SWIDTH 578 0
DWIDTH 8 0
BBX 9 10 0 0
BITMAP
0145541000
4E9444A500
DFFF4FFE00
FFFF4FFF20
FFFF4FFF20
FFFF4FFF20
FFFF5FFF20
FFFE7FFF10
BFFF5FFC00
1AEFEEA200
ENDCHAR
STARTCHAR uni021B
ENCODING 539
SWIDTH 578 0
DWIDTH 8 0
BBX 9 10 0 0
BITMAP
0145541000
4E9444A500
DFFF4FFE00
FFFF4FFF20
FFFF4FFF20
FFFF4FFF20
FFFF5FFF20
FFFE7FFF10
BFFF5FFC00
1AEFEEA200
ENDCHAR
STARTCHAR circumflex
ENCODING 710
SWIDTH 355 0
DWIDTH 5 0
BBX 5 5 0 0
BITMAP
0AEA00
4F7F40
BB8BA0
FAFAE0
9BBB90
ENDCHAR
STARTCHAR caron
ENCODING 711
SWIDTH 355 0
DWIDTH 5 0
BBX 5 5 0 0
BITMAP
485840
ECFCE0
E9BAE0
AE4FA0
4BBB40
ENDCHAR
STARTCHAR breve
ENCODING 728
SWIDTH 428 0
DWIDTH 6 0
BBX 6 4 0 0
BITMAP
3CFFC3
DFFFFD
ED55DE
6FEEF6
ENDCHAR
STARTCHAR dotaccent
ENCODING 729
SWIDTH 428 0
DWIDTH 6 0
BBX 6 4 0 0
BITMAP
3CFFC3
DFEEFD
FFABFE
9DDDD8
ENDCHAR
STARTCHAR ring
ENCODING 730
SWIDTH 368 0
DWIDTH 5 0
BBX 6 5 0 0
BITMAP
025200
5FEF70
D887F1
F887F2
BFEFD0
ENDCHAR
STARTCHAR ogonek
ENCODING 731
SWIDTH 101 0
DWIDTH 1 0
BBX 2 3 0 -3
BITMAP
91
B3
11
ENDCHAR
STARTCHAR tilde
ENCODING 732
SWIDTH 428 0
DWIDTH 6 0
BBX 6 5 0 0
BITMAP
026620
6FFFF5
EFFFFD
E966AE
8EFDF8
ENDCHAR
STARTCHAR hungarumlaut
ENCODING 733
SWIDTH 419 0
DWIDTH 6 0
BBX 6 5 0 0
BITMAP
05CBC1
1EBEB8
8E89DA
EBEBE1
ABBB50
ENDCHAR
STARTCHAR uni030F
ENCODING 783
SWIDTH 419 0
DWIDTH 6 0
BBX 6 5 0 0
BITMAP
2CBC30
ABEBD0
CCB8F6
2FAEBD
06BBB8
ENDCHAR
STARTCHAR mu
ENCODING 956
SWIDTH 578 0
DWIDTH 8 0
BBX 9 10 0 0
BITMAP
0145541000
4E7FFC9500
DF4FFB8E00
FF4FFB8F20
FF4FFB8F20
FF4FFB8F20
FF3443CF20
FFBFFFFF10
BFFFFFFC00
1AEFFEA200
ENDCHAR
STARTCHAR pi
ENCODING 960
SWIDTH 578 0
DWIDTH 8 0
BBX 9 10 0 0
BITMAP
0145541000
4EC779E500
DBA77A7E00
F8E9E8BB20
F8C587E920
F8ACF7BC20
FB8EFB7F20
FFD88AFF10
BFFFFFFC00
1AEFFEA200
ENDCHAR
STARTCHAR uni1E60
ENCODING 7776
SWIDTH 578 0
DWIDTH 8 0
BBX 9 14 0 0
BITMAP
0000100000
008EFE7000
06FFDFF500
08FF6FF600
04FFFFE200
4EB444D500
DF6DFFFE00
FF68ABFF20
FFE995AF20
FFFFFA9F20
FFB443CF20
FFFFFFFF10
BFFFFFFC00
1AEFFEA200
ENDCHAR
STARTCHAR uni1E8E
ENCODING 7822
SWIDTH 578 0
DWIDTH 8 0
BBX 9 14 0 0
BITMAP
0000100000
009EFE6000
07FFDFF300
09FE7FF500
05FFFFE100
4E9CF9B500
DFC5F3FE00
FFF498FF20
FFFA1EFF20
FFFF4FFF20
FFFF5FFF20
FFFFFFFF10
BFFFFFFC00
1AEFFEA200
ENDCHAR
STARTCHAR uni1E8F
ENCODING 7823
SWIDTH 578 0
DWIDTH 8 0
BBX 9 14 0 0
BITMAP
0000100000
009EFE6000
07FFDFF300
09FE7FF500
05FFFFE100
4E9CF9B500
DFC5F3FE00
FFF498FF20
FFFA1EFF20
FFFF4FFF20
FFFF5FFF20
FFFFFFFF10
BFFFFFFC00
1AEFFEA200
ENDCHAR
STARTCHAR uni1EBC
ENCODING 7868
SWIDTH 578 0
DWIDTH 8 0
BBX 9 14 0 0
BITMAP
0015740000
01DFFFB000
08FFFFF400
08D575F500
03FFFFE100
4EC444D500
DFB8FFFE00
FFB6BCFF20
FFB58AFF20
FFB8FFFF20
FFC344DF20
FFFFFFFF10
BFFFFFFC00
1AEFFEA200
ENDCHAR
STARTCHAR uni1EF8
ENCODING 7928
SWIDTH 578 0
DWIDTH 8 0
BBX 9 14 0 0
BITMAP
0015740000
01DFFFB000
08FFFFF400
08D575F400
04FFFFE100
4E9CF9B500
DFC5F3FE00
FFF498FF20
FFFA1EFF20
FFFF4FFF20
FFFF5FFF20
FFFFFFFF10
BFFFFFFC00
1AEFFEA200
ENDCHAR
STARTCHAR uni1EF9
ENCODING 7929
SWIDTH 578 0
DWIDTH 8 0
BBX 9 14 0 0
BITMAP
0015740000
01DFFFB000
08FFFFF400
08D575F400
04FFFFE100
4E9CF9B500
DFC5F3FE00
FFF498FF20
FFFA1EFF20
FFFF4FFF20
FFFF5FFF20
FFFFFFFF10
BFFFFFFC00
1AEFFEA200
ENDCHAR
STARTCHAR endash
ENCODING 8211
SWIDTH 428 0
DWIDTH 6 0
BBX 6 10 0 0
BITMAP
014410
4EFFE4
DFFFFD
FC44CF
FFFFFF
FFFFFF
FFFFFF
FFFFFF
BFFFFA
1AEEA1
ENDCHAR
STARTCHAR emdash
ENCODING 8212
SWIDTH 428 0
DWIDTH 6 0
BBX 6 10 0 0
BITMAP
014410
4EFFE4
DFFFFD
444444
FFFFFF
FFFFFF
FFFFFF
FFFFFF
BFFFFA
1AEEA1
ENDCHAR
STARTCHAR quoteleft
ENCODING 8216
SWIDTH 428 0
DWIDTH 6 0
BBX 6 10 0 0
BITMAP
014410
4EDCE4
DF87FD
FFFFFF
FFFFFF
FFFFFF
FFFFFF
FFFFFF
BFFFFA
1AEEA1
ENDCHAR
STARTCHAR quoteright
ENCODING 8217
SWIDTH 428 0
DWIDTH 6 0
BBX 6 10 0 0
BITMAP
014410
4EA9E4
DFD9FD
FFFFFF
FFFFFF
FFFFFF
FFFFFF
FFFFFF
BFFFFA
1AEEA1
ENDCHAR
STARTCHAR quotesinglbase
ENCODING 8218
SWIDTH 428 0
DWIDTH 6 0
BBX 6 10 0 0
BITMAP
014410
4EFFE4
DFFFFD
FFFFFF
FFFFFF
FFFFFF
FF96FF
FFDBFF
BFFFFA
1AEEA1
ENDCHAR
STARTCHAR quotedblleft
ENCODING 8220
SWIDTH 428 0
DWIDTH 6 0
BBX 6 10 0 0
BITMAP
014410
4EA9E4
DD22DD
FFFFFF
FFFFFF
FFFFFF
FFFFFF
FFFFFF
BFFFFA
1AEEA1
ENDCHAR
STARTCHAR quotedblright
ENCODING 8221
SWIDTH 428 0
DWIDTH 6 0
BBX 6 10 0 0
BITMAP
014410
4E46B4
DF78DD
FFFFFF
FFFFFF
FFFFFF
FFFFFF
FFFFFF
BFFFFA
1AEEA1
ENDCHAR
STARTCHAR quotedblbase
ENCODING 8222
SWIDTH 428 0
DWIDTH 6 0
BBX 6 10 0 0
BITMAP
014410
4EFFE4
DFFFFD
FFFFFF
FFFFFF
FFFFFF
FF14BF
FF9AEF
BFFFFA
1AEEA1
ENDCHAR
STARTCHAR dagger
ENCODING 8224
SWIDTH 578 0
DWIDTH 8 0
BBX 9 10 0 0
BITMAP
0145541000
4EFF7FE500
DFF718FE00
FFFE4EFF20
FFFF4FFF20
FFFF4FFF20
FFFF5FFF20
FFFFFFFF10
BFFFFFFC00
1AEFFEA200
ENDCHAR
STARTCHAR daggerdbl
ENCODING 8225
SWIDTH 578 0
DWIDTH 8 0
BBX 9 10 0 0
BITMAP
0145541000
4EFF7FE500
DFF718FE00
FFFE4EFF20
FFFF4FFF20
FFF617FF20
FFFF5FFF20
FFFFFFFF10
BFFFFFFC00
1AEFFEA200
ENDCHAR
STARTCHAR bullet
ENCODING 8226
SWIDTH 578 0
DWIDTH 8 0
BBX 9 10 0 0
BITMAP
0145541000
4EFEDFE500
DF8001DE00
FF40009F20
FF40009F20
FF4000AF20
FFD658FF20
FFFFFFFF10
BFFFFFFC00
1AEFFEA200
ENDCHAR
STARTCHAR ellipsis
ENCODING 8230
SWIDTH 578 0
DWIDTH 8 0
BBX 9 10 0 0
BITMAP
0145541000
4EFFFFE500
DFFFFFFE00
FFFFFFFF20
FFFFFFFF20
FFFFFFFF20
FC6994EF20
FFFFFFFF10
BFFFFFFC00
1AEFFEA200
ENDCHAR
STARTCHAR perthousand
ENCODING 8240
SWIDTH 640 0
DWIDTH 9 0
BBX 9 10 0 0
BITMAP
0145554100
49DDEFFE40
6745DFFFC0
B474FFFFF0
FFC768C5B0
FF78645A40
FF9E78C6B0
FFFFFFFFE0
BFFFFFFFA0
1AEFFFE910
ENDCHAR
STARTCHAR guilsinglleft
ENCODING 8249
SWIDTH 578 0
DWIDTH 8 0
BBX 9 10 0 0
BITMAP
0145541000
4EFFFEE500
DFFF8BFE00
FFFC7FFF20
FFF4FFFF20
FFFB8FFF20
FFFF7CFF20
FFFFFEFF10
BFFFFFFC00
1AEFFEA200
ENDCHAR
STARTCHAR guilsinglright
ENCODING 8250
SWIDTH 578 0
DWIDTH 8 0
BBX 9 10 0 0
BITMAP
0145541000
4EFEFFE500
DFF7DFFE00
FFFE5FFF20
FFFF9AFF20
FFFF5FFF20
FFF7CFFF20
FFFEFFFF10
BFFFFFFC00
1AEFFEA200
ENDCHAR
STARTCHAR fraction
ENCODING 8260
SWIDTH 428 0
DWIDTH 6 0
BBX 6 10 0 0
BITMAP
014410
4EF7E4
DFD6FD
FFB8FF
FF8BFF
FF6DFF
FF5FFF
FFFFFF
BFFFFA
1AEEA1
ENDCHAR
STARTCHAR Euro
ENCODING 8364
SWIDTH 578 0
DWIDTH 8 0
BBX 9 10 0 0
BITMAP
0145541000
4E8447E500
DF4FFFFE00
F915AFFF20
F915AFFF20
FF4FFFFF20
FF7447FF20
FFFFFFFF10
BFFFFFFC00
1AEFFEA200
ENDCHAR
STARTCHAR trademark
ENCODING 8482
SWIDTH 578 0
DWIDTH 8 0
BBX 9 10 0 0
BITMAP
0145541000
4EFFFFE500
DFFFFFFE00
FE89CAFF20
FF7B32FF20
FFBD9AFF20
FFFFFFFF20
FFFFFFFF10
BFFFFFFC00
1AEFFEA200
ENDCHAR
STARTCHAR product
ENCODING 8719
SWIDTH 578 0
DWIDTH 8 0
BBX 9 10 0 0
BITMAP
0145541000
4EC779E500
DBA98A7E00
F8F7E7BB20
F8F596E920
F8F7EFBC20
FB9BFD7F20
FFD88AFF10
BFFFFFFC00
1AEFFEA200
ENDCHAR
STARTCHAR minus
ENCODING 8722
SWIDTH 428 0
DWIDTH 6 0
BBX 6 10 0 0
BITMAP
014410
4EFFE4
DFFFFD
FC44CF
FFFFFF
FFFFFF
FFFFFF
FFFFFF
BFFFFA
1AEEA1
ENDCHAR
STARTCHAR notequal
ENCODING 8800
SWIDTH 578 0
DWIDTH 8 0
BBX 9 10 0 0
BITMAP
0145541000
4EFFEEE500
DFBA39FE00
FFA65AFF20
FF6145FF20
FFFAFFFF20
FFFFFFFF20
FFFFFFFF10
BFFFFFFC00
1AEFFEA200
ENDCHAR
STARTCHAR uni2706
ENCODING 9990
SWIDTH 578 0
DWIDTH 8 0
BBX 9 10 0 0
BITMAP
0145541000
4EFE9EE500
DFFC7AFE00
FF86AAFF20
FF69FFFF20
FFB4FFFF20
FFF636FF20
FFFFBBFF10
BFFFFFFC00
1AEFFEA200
ENDCHAR
STARTCHAR uni2708
ENCODING 9992
SWIDTH 578 0
DWIDTH 8 0
BBX 9 10 0 0
BITMAP
0144441000
3406613300
5001700400
4185983220
400AD30220
4002700220
4001500220
4000100310
5007B00500
1544545200
ENDCHAR
STARTCHAR uniF6D6
ENCODING 63190
SWIDTH 419 0
DWIDTH 6 0
BBX 6 5 0 0
BITMAP
2CBC30
ABEBD0
CCB8F6
2FAEBD
06BBB8
ENDCHAR
STARTCHAR uFFFF2
ENCODING 1048562
SWIDTH 578 0
DWIDTH 8 0
BBX 9 10 0 0
BITMAP
0144441000
3400303300
5002700400
4006B00220
407ABA1220
4120712220
4006910220
4001100310
5007B00500
1544545200
ENDCHAR
STARTCHAR uFFFF3
ENCODING 1048563
SWIDTH 578 0
DWIDTH 8 0
BBX 9 10 0 0
BITMAP
0144441000
3400403300
5011C60400
402AB90220
4005E10220
402ABA0220
4011D60220
4000400310
5000000500
1544445200
ENDCHAR
STARTCHAR uFFFF4
ENCODING 1048564
SWIDTH 578 0
DWIDTH 8 0
BBX 9 10 0 0
BITMAP
0145541000
4EFFEFE500
DFED8CFE00
FF7E89DF20
FF7FBDAF20
FF7DF7DF20
FFE87CFF20
FFFFFFFF10
BFFFFFFC00
1AEFFEA200
ENDCHAR
STARTCHAR uFFFF5
ENCODING 1048565
SWIDTH 578 0
DWIDTH 8 0
BBX 9 10 0 0
BITMAP
0145541000
4EF99EE500
DFFE8FFE00
FE7A67CF20
FFF52CFF20
FFFD8FFF20
FFFEAFFF20
FFFFEFFF10
BFF84FFC00
1AEFEEA200
ENDCHAR
STARTCHAR uFFFF6
ENCODING 1048566
SWIDTH 578 0
DWIDTH 8 0
BBX 9 10 0 0
BITMAP
0145541000
4EFFCFE500
DFFD8FFE00
FFF94FFF20
FF8545EF20
FEDD9EDF20
FFF86EFF20
FFFEEFFF10
BFF84FFC00
1AEFEEA200
ENDCHAR
STARTCHAR uFFFF8
ENCODING 1048568
SWIDTH 578 0
DWIDTH 8 0
BBX 9 10 0 0
BITMAP
0145541000
4EFEDFE500
DFF65DFE00
FFC239FF20
FF8A58FF20
FF3101EF20
FF8004FF20
FFFB9EFF10
BFF74FFC00
1AEFEEA200
ENDCHAR
STARTCHAR uFFFF9
ENCODING 1048569
SWIDTH 578 0
DWIDTH 8 0
BBX 9 10 0 0
BITMAP
0144441000
3400103300
5012830400
4081862220
4080425220
4082082220
4017830220
4000000310
5000000500
1544445200
ENDCHAR
STARTCHAR uFFFFB
ENCODING 1048571
SWIDTH 578 0
DWIDTH 8 0
BBX 9 10 0 0
BITMAP
0145541000
4EFCAFE500
DFBB4AFE00
FFC33BFF20
FFF53FFF20
FF9857FF20
FFFC3EFF20
FFFEEFFF10
BFFFFFFC00
1AEFFEA200
ENDCHAR
STARTCHAR uFFFFC
ENCODING 1048572
SWIDTH 578 0
DWIDTH 8 0
BBX 9 10 0 0
BITMAP
0145541000
4ED98BE500
D968885D00
FD5786AF20
FFC788FF20
FFFB5FFF20
FFFFFFFF20
FFFFFFFF10
BFFFFFFC00
1AEFFEA200
ENDCHAR
STARTCHAR uFFFFD
ENCODING 1048573
SWIDTH 578 0
DWIDTH 8 0
BBX 9 10 0 0
BITMAP
0145541000
4EFCBFE500
DF9004FE00
FF3000EF20
FF7A68FF20
FFB238FF20
FFF65DFF20
FFFDBFFF10
BFF74FFC00
1AEFEEA200
ENDCHAR
STARTCHAR uFFFFE
ENCODING 1048574
SWIDTH 578 0
DWIDTH 8 0
BBX 9 10 0 0
BITMAP
0145541000
4DCDECC500
D7A56A5E00
F8857F7F20
F7E67F7F20
F875875F20
FFFFFFFF20
FFFFFFFF10
BFFFFFFC00
1AEFFEA200
ENDCHAR
STARTCHAR uFFFFF
ENCODING 1048575
SWIDTH 578 0
DWIDTH 8 0
BBX 9 10 0 0
BITMAP
0144441000
3403403300
506FFB0400
40CFFF1220
4085970220
404DC70220
400AA20220
4002400310
5008B00500
1545545200
ENDCHAR
STARTCHAR .notdef
ENCODING -1
SWIDTH 1000 0
DWIDTH 14 0
BBX 1 1 0 0
BITMAP
00
ENDCHAR
STARTCHAR glyph1
ENCODING -1
SWIDTH 0 0
DWIDTH 0 0
BBX 1 1 0 0
BITMAP
00
ENDCHAR
ENDFONT
